<svg height="512" viewBox="0 0 64 64" width="512" xmlns="http://www.w3.org/2000/svg"><g id="add_user" data-name="add  user"><path d="m32 34h-4a5.0059 5.0059 0 0 0 -5 5v4a.9994.9994 0 0 0 1 1h12a.9994.9994 0 0 0 1-1v-4a5.0059 5.0059 0 0 0 -5-5zm-4 2h4a3.0033 3.0033 0 0 1 3 3v3h-10v-3a3.0033 3.0033 0 0 1 3-3zm2-4a3 3 0 1 0 -3-3 3.0033 3.0033 0 0 0 3 3zm0-4a1 1 0 1 1 -1 1 1.0007 1.0007 0 0 1 1-1zm11-4.501a.9994.9994 0 0 1 -1 1h-1.5v1.501a1 1 0 0 1 -2 0v-1.501h-1.5a1 1 0 0 1 0-2h1.5v-1.499a1 1 0 0 1 2 0v1.499h1.5a.9994.9994 0 0 1 1 1zm-9-15.499a24 24 0 1 0 24 24 24.0275 24.0275 0 0 0 -24-24zm0 46a22 22 0 1 1 22-22 22.0249 22.0249 0 0 1 -22 22z"/></g></svg>