<svg height="512" viewBox="0 0 64 64" width="512" xmlns="http://www.w3.org/2000/svg"><g id="bag"><path d="m42 25h-1v-2a2.002 2.002 0 0 0 -2-2h-14a2.002 2.002 0 0 0 -2 2v2h-1a2.002 2.002 0 0 0 -2 2v14a2.002 2.002 0 0 0 2 2h20a2.002 2.002 0 0 0 2-2v-14a2.002 2.002 0 0 0 -2-2zm-17-2h14v2h-14zm17 4v4h-20v-4zm-13 6h6v1.5h-6zm-7 8v-8h5v1.5a2.002 2.002 0 0 0 2 2h6a2.002 2.002 0 0 0 2-2v-1.5h5v8zm10-33a24 24 0 1 0 24 24 24.0275 24.0275 0 0 0 -24-24zm0 46a22 22 0 1 1 22-22 22.0249 22.0249 0 0 1 -22 22z"/></g></svg>