<svg height="512" viewBox="0 0 64 64" width="512" xmlns="http://www.w3.org/2000/svg"><g id="box"><path d="m32 8a24 24 0 1 0 24 24 24.0275 24.0275 0 0 0 -24-24zm0 46a22 22 0 1 1 22-22 22.0249 22.0249 0 0 1 -22 22zm10-34h-20a2.002 2.002 0 0 0 -2 2v20a2.002 2.002 0 0 0 2 2h20a2.002 2.002 0 0 0 2-2v-20a2.002 2.002 0 0 0 -2-2zm-13 2h6v5.3818l-2.5527-1.2764a1.0011 1.0011 0 0 0 -.8945 0l-2.5528 1.2764zm-7 20v-20h5v7a1 1 0 0 0 1.4473.8945l3.5527-1.7763 3.5527 1.7764a1 1 0 0 0 1.4473-.8946v-7h5l.0015 20zm13-3a1 1 0 1 1 -1-1 1 1 0 0 1 1 1zm3 0a1 1 0 1 1 -1-1 1 1 0 0 1 1 1zm3 0a1 1 0 1 1 -1-1 1 1 0 0 1 1 1z"/></g></svg>