<svg height="512" viewBox="0 0 64 64" width="512" xmlns="http://www.w3.org/2000/svg"><g id="calendar"><path d="m42 22h-2v-1a1 1 0 0 0 -2 0v1h-12v-1a1 1 0 0 0 -2 0v1h-2a3.0033 3.0033 0 0 0 -3 3v16a3.0033 3.0033 0 0 0 3 3h20a3.0033 3.0033 0 0 0 3-3v-16a3.0033 3.0033 0 0 0 -3-3zm-20 2h2v1a1 1 0 0 0 2 0v-1h12v1a1 1 0 0 0 2 0v-1h2a1.0013 1.0013 0 0 1 1 1v2h-22v-2a1.0013 1.0013 0 0 1 1-1zm20 18h-20a1.0013 1.0013 0 0 1 -1-1v-12h22v12a1.0013 1.0013 0 0 1 -1 1zm-8-12h-4a1 1 0 0 0 -1 1v3a1 1 0 0 0 1 1h4a1 1 0 0 0 1-1v-3a1 1 0 0 0 -1-1zm-1 3h-2v-1h2zm-6-3h-4a1 1 0 0 0 -1 1v3a1 1 0 0 0 1 1h4a1 1 0 0 0 1-1v-3a1 1 0 0 0 -1-1zm-1 3h-2v-1h2zm15-3h-4a1 1 0 0 0 -1 1v3a1 1 0 0 0 1 1h4a1 1 0 0 0 1-1v-3a1 1 0 0 0 -1-1zm-1 3h-2v-1h2zm-6 3h-4a1 1 0 0 0 -1 1v3a1 1 0 0 0 1 1h4a1 1 0 0 0 1-1v-3a1 1 0 0 0 -1-1zm-1 3h-2v-1h2zm-6-3h-4a1 1 0 0 0 -1 1v3a1 1 0 0 0 1 1h4a1 1 0 0 0 1-1v-3a1 1 0 0 0 -1-1zm-1 3h-2v-1h2zm15-3h-4a1 1 0 0 0 -1 1v3a1 1 0 0 0 1 1h4a1 1 0 0 0 1-1v-3a1 1 0 0 0 -1-1zm-1 3h-2v-1h2zm-8-31a24 24 0 1 0 24 24 24.0275 24.0275 0 0 0 -24-24zm0 46a22 22 0 1 1 22-22 22.0249 22.0249 0 0 1 -22 22z"/></g></svg>