<svg height="512" viewBox="0 0 64 64" width="512" xmlns="http://www.w3.org/2000/svg"><g id="call"><path d="m40.4854 33.415a2.05 2.05 0 0 0 -2.8291-.001l-1.4141 1.4131-7.07-7.07 1.4141-1.4131.001-.001a2.003 2.003 0 0 0 -.001-2.8271l-2.83-2.83a1.9849 1.9849 0 0 0 -1.4136-.584h-.0015a1.9822 1.9822 0 0 0 -1.4131.585l-4.24 4.2432a2.0033 2.0033 0 0 0 0 2.8281l15.5551 15.5543a2.0016 2.0016 0 0 0 2.8291.001l4.2412-4.2435a2.0055 2.0055 0 0 0 -.001-2.8281zm-2.8271 8.4844-15.5558-15.5566 4.2393-4.2428 2.8281 2.832-1.4131 1.4121a2.0055 2.0055 0 0 0 .001 2.8281l7.0693 7.0678a2.05 2.05 0 0 0 2.8291.001l1.4138-1.4129 2.8281 2.8291zm-5.6583-33.8994a24 24 0 1 0 24 24 24.0275 24.0275 0 0 0 -24-24zm0 46a22 22 0 1 1 22-22 22.0249 22.0249 0 0 1 -22 22z"/></g></svg>