<svg height="512" viewBox="0 0 64 64" width="512" xmlns="http://www.w3.org/2000/svg"><g id="camera"><path d="m28 25h-3a1 1 0 0 1 0-2h3a1 1 0 0 1 0 2zm8 0a1 1 0 1 0 -1-1 1 1 0 0 0 1 1zm3-2a1 1 0 1 0 1 1 1 1 0 0 0 -1-1zm-1 8a6 6 0 1 1 -6-6 6.0066 6.0066 0 0 1 6 6zm-2 0a4 4 0 1 0 -4 4 4.0046 4.0046 0 0 0 4-4zm20 1a24 24 0 1 1 -24-24 24.0275 24.0275 0 0 1 24 24zm-2 0a22 22 0 1 0 -22 22 22.0249 22.0249 0 0 0 22-22zm-10-9v14a3.0033 3.0033 0 0 1 -3 3h-4v2h1a1 1 0 0 1 0 2h-12a1 1 0 0 1 0-2h1v-2h-4a3.0033 3.0033 0 0 1 -3-3v-14a3.0033 3.0033 0 0 1 3-3h18a3.0033 3.0033 0 0 1 3 3zm-9 17h-6v2h6zm7-17a1.0013 1.0013 0 0 0 -1-1h-18a1.0013 1.0013 0 0 0 -1 1v14a1.0013 1.0013 0 0 0 1 1h18a1.0013 1.0013 0 0 0 1-1zm-10 5a3.0033 3.0033 0 0 0 -3 3 1 1 0 0 0 2 0 1.0013 1.0013 0 0 1 1-1 1 1 0 0 0 0-2z"/></g></svg>