<svg height="512" viewBox="0 0 64 64" width="512" xmlns="http://www.w3.org/2000/svg"><g id="cancel"><path d="m32 19a13 13 0 1 0 13 13 13.0151 13.0151 0 0 0 -13-13zm0 24a11 11 0 1 1 11-11 11.0124 11.0124 0 0 1 -11 11zm0-35a24 24 0 1 0 24 24 24.0275 24.0275 0 0 0 -24-24zm0 46a22 22 0 1 1 22-22 22.0249 22.0249 0 0 1 -22 22zm6.3659-26.9492-4.951 4.951 4.9493 4.9494a1 1 0 0 1 -1.4142 1.414l-4.9493-4.9494-4.9494 4.9494a1 1 0 0 1 -1.4141-1.4141l4.9494-4.9494-4.951-4.951a1 1 0 0 1 1.4144-1.414l4.951 4.951 4.951-4.951a1 1 0 0 1 1.4141 1.4141z"/></g></svg>