<svg height="512" viewBox="0 0 64 64" width="512" xmlns="http://www.w3.org/2000/svg"><g id="cd_rom" data-name="cd rom"><path d="m44 24h-24a1 1 0 0 0 -1 1v14a1 1 0 0 0 1 1h24a1 1 0 0 0 1-1v-14a1 1 0 0 0 -1-1zm-1 14h-22v-12h22zm-20-1h18a1 1 0 0 0 1-1v-4a1 1 0 0 0 -1-1h-18a1 1 0 0 0 -1 1v4a1 1 0 0 0 1 1zm1-4h16v2h-16zm6.5-5a1 1 0 0 1 1-1h9a1 1 0 0 1 0 2h-9a1 1 0 0 1 -1-1zm-8.5 0a1 1 0 1 1 1 1 1 1 0 0 1 -1-1zm3 0a1 1 0 1 1 1 1 1 1 0 0 1 -1-1zm7-20a24 24 0 1 0 24 24 24.0275 24.0275 0 0 0 -24-24zm0 46a22 22 0 1 1 22-22 22.0249 22.0249 0 0 1 -22 22z"/></g></svg>