<svg height="512" viewBox="0 0 64 64" width="512" xmlns="http://www.w3.org/2000/svg"><g id="chat-2" data-name="chat"><path d="m39 26.0239a1 1 0 0 1 -1 1h-12a1 1 0 0 1 0-2h12a1 1 0 0 1 1 1zm-1 3h-12a1 1 0 0 0 0 2h12a1 1 0 0 0 0-2zm0 4h-12a1 1 0 0 0 0 2h12a1 1 0 0 0 0-2zm5-9.0239v12a3.0033 3.0033 0 0 1 -3 3h-8.3813l-1.7241 3.4473a1 1 0 0 1 -1.7891 0l-1.7237-3.4473h-2.3818a3.0033 3.0033 0 0 1 -3-3v-12a3.0033 3.0033 0 0 1 3-3h16a3.0033 3.0033 0 0 1 3 3zm-2 0a1.0013 1.0013 0 0 0 -1-1h-16a1.0013 1.0013 0 0 0 -1 1v12a1.0013 1.0013 0 0 0 1 1h3a1 1 0 0 1 .8945.5527l1.1055 2.2115 1.106-2.2114a1 1 0 0 1 .894-.5528h9a1.0013 1.0013 0 0 0 1-1zm15 8a24 24 0 1 1 -24-24 24.0275 24.0275 0 0 1 24 24zm-2 0a22 22 0 1 0 -22 22 22.0249 22.0249 0 0 0 22-22z"/></g></svg>