<svg height="512" viewBox="0 0 64 64" width="512" xmlns="http://www.w3.org/2000/svg"><g id="chat"><path d="m25 34a3 3 0 1 1 3-3 3.0033 3.0033 0 0 1 -3 3zm0-4a1 1 0 1 0 1 1 1.001 1.001 0 0 0 -1-1zm7 4a3 3 0 1 1 3-3 3.0033 3.0033 0 0 1 -3 3zm0-4a1 1 0 1 0 1 1 1.001 1.001 0 0 0 -1-1zm7 4a3 3 0 1 1 3-3 3.0033 3.0033 0 0 1 -3 3zm0-4a1 1 0 1 0 1 1 1.001 1.001 0 0 0 -1-1zm-14 13a1 1 0 0 1 -.6729-.26l-1.7139-1.5586h-2.6132a1.9582 1.9582 0 0 1 -2-1.9092v-16.363a1.9582 1.9582 0 0 1 2-1.9092h24a1.9582 1.9582 0 0 1 2 1.9092v16.3633a1.9582 1.9582 0 0 1 -2 1.9092h-16.6128l-1.7143 1.5583a1.0011 1.0011 0 0 1 -.6729.26zm-5-3.8262 3 .0078a1.0014 1.0014 0 0 1 .6729.26l1.3271 1.2068 1.3276-1.207a1.0023 1.0023 0 0 1 .6729-.26h16.9995v-16.1736l-24-.0078zm12 16.8262a24 24 0 1 1 24-24 24.0275 24.0275 0 0 1 -24 24zm0-46a22 22 0 1 0 22 22 22.0249 22.0249 0 0 0 -22-22z"/></g></svg>