<svg height="512" viewBox="0 0 64 64" width="512" xmlns="http://www.w3.org/2000/svg"><g id="check"><path d="m32 19a13 13 0 1 0 13 13 13.0151 13.0151 0 0 0 -13-13zm0 24a11 11 0 1 1 11-11 11.0124 11.0124 0 0 1 -11 11zm7.6689-16.7432a1 1 0 0 1 .0742 1.4121l-9 10a.9991.9991 0 0 1 -.7431.3311h-.0186a1.0031 1.0031 0 0 1 -.75-.3594l-5-6a1.0005 1.0005 0 1 1 1.5371-1.2812l4.2607 5.1133 8.2275-9.1416a1 1 0 0 1 1.4122-.0743zm-7.6689-18.2568a24 24 0 1 0 24 24 24.0275 24.0275 0 0 0 -24-24zm0 46a22 22 0 1 1 22-22 22.0249 22.0249 0 0 1 -22 22z"/></g></svg>