<svg height="512" viewBox="0 0 64 64" width="512" xmlns="http://www.w3.org/2000/svg"><g id="compass"><path d="m32 19a13 13 0 1 0 13 13 13.0151 13.0151 0 0 0 -13-13zm0 24a11 11 0 1 1 11-11 11.0124 11.0124 0 0 1 -11 11zm-1-18a1 1 0 1 1 1 1 .9994.9994 0 0 1 -1-1zm2 15a1 1 0 1 1 -1-1 1 1 0 0 1 1 1zm7-9a1 1 0 1 1 -1 1 .9995.9995 0 0 1 1-1zm-15 1a1 1 0 1 1 -1-1 1 1 0 0 1 1 1zm7-24a24 24 0 1 0 24 24 24.0275 24.0275 0 0 0 -24-24zm0 46a22 22 0 1 1 22-22 22.0249 22.0249 0 0 1 -22 22zm.8945-25.4473a1.0413 1.0413 0 0 0 -1.7891 0l-3 6a1 1 0 0 0 .8946 1.4473h6a1 1 0 0 0 .8945-1.4473zm-2.2763 5.4473 1.3818-2.7637 1.3818 2.7637z"/></g></svg>