<svg height="512" viewBox="0 0 64 64" width="512" xmlns="http://www.w3.org/2000/svg"><g id="coupon"><path d="m41 23h-18c-2.2432 0-4 1.3179-4 3v2a1 1 0 0 0 1 1 3.215 3.215 0 0 1 3 3.25 2.7884 2.7884 0 0 1 -3 2.75 1 1 0 0 0 -1 1v2c0 1.6821 1.7568 3 4 3h18c2.2432 0 4-1.3179 4-3v-2a1 1 0 0 0 -1-1 2.7884 2.7884 0 0 1 -3-2.75 3.215 3.215 0 0 1 3-3.25 1 1 0 0 0 1-1v-2c0-1.6821-1.7568-3-4-3zm-2 9.25a4.69 4.69 0 0 0 4 4.66v1.09c0 .3979-.7979 1-2 1h-8v-1a1 1 0 0 0 -2 0v1h-8c-1.2021 0-2-.6021-2-1v-1.09a4.69 4.69 0 0 0 4-4.66 5.28 5.28 0 0 0 -4-5.1387v-1.1113c0-.3979.7979-1 2-1h8v1a1 1 0 0 0 2 0v-1h8c1.2021 0 2 .6021 2 1v1.1113a5.28 5.28 0 0 0 -4 5.1387zm-6-3.25v1a1 1 0 0 1 -2 0v-1a1 1 0 0 1 2 0zm0 5v1a1 1 0 0 1 -2 0v-1a1 1 0 0 1 2 0zm-1-26a24 24 0 1 0 24 24 24.0275 24.0275 0 0 0 -24-24zm0 46a22 22 0 1 1 22-22 22.0249 22.0249 0 0 1 -22 22z"/></g></svg>