<svg height="512" viewBox="0 0 64 64" width="512" xmlns="http://www.w3.org/2000/svg"><g id="credit_card-2" data-name="credit card"><path d="m43 23h-22a1.996 1.996 0 0 0 -2 1.9878v14.0244a1.996 1.996 0 0 0 2 1.9878h22a1.9963 1.9963 0 0 0 2-1.9878v-14.0244a1.9963 1.9963 0 0 0 -2-1.9878zm0 1.9878v3.0493h-22v-3.0371zm-22 14.0244v-8.9751h22v8.9629zm20-3.0122a1 1 0 1 1 -1-1 1 1 0 0 1 1 1zm-3 0a1 1 0 1 1 -1-1 1 1 0 0 1 1 1zm-6-28a24 24 0 1 0 24 24 24.0275 24.0275 0 0 0 -24-24zm0 46a22 22 0 1 1 22-22 22.0249 22.0249 0 0 1 -22 22z"/></g></svg>