<svg height="512" viewBox="0 0 64 64" width="512" xmlns="http://www.w3.org/2000/svg"><g id="credit_card" data-name="credit card"><path d="m42 22h-20a3.0033 3.0033 0 0 0 -3 3v14a3.0033 3.0033 0 0 0 3 3h20a3.0033 3.0033 0 0 0 3-3v-14a3.0033 3.0033 0 0 0 -3-3zm-20 2h20a1.001 1.001 0 0 1 1 1v3h-22v-3a1.0013 1.0013 0 0 1 1-1zm20 16h-20a1.0013 1.0013 0 0 1 -1-1v-9h22v9a1.001 1.001 0 0 1 -1 1zm-20-14a1 1 0 0 1 1-1h7a1 1 0 0 1 0 2h-7a1 1 0 0 1 -1-1zm20 12a1 1 0 0 1 -1 1h-2a1 1 0 0 1 0-2h2a1 1 0 0 1 1 1zm-5 0a1 1 0 0 1 -1 1h-2a1 1 0 0 1 0-2h2a1 1 0 0 1 1 1zm-5-30a24 24 0 1 0 24 24 24.0275 24.0275 0 0 0 -24-24zm0 46a22 22 0 1 1 22-22 22.0249 22.0249 0 0 1 -22 22z"/></g></svg>