<svg height="512" viewBox="0 0 64 64" width="512" xmlns="http://www.w3.org/2000/svg"><g id="delete"><path d="m42 23h-6v-3a1 1 0 0 0 -1-1h-6a1 1 0 0 0 -1 1v3h-6a1 1 0 0 0 0 2h20a1 1 0 0 0 0-2zm-12 0v-2h4v2zm-1 17v-7.999a1 1 0 1 1 2 0v7.999a1 1 0 0 1 -2 0zm4 0v-7.999a1 1 0 0 1 2 0v7.999a1 1 0 0 1 -2 0zm-1-32a24 24 0 1 0 24 24 24.0275 24.0275 0 0 0 -24-24zm0 46a22 22 0 1 1 22-22 22.0249 22.0249 0 0 1 -22 22zm7-27h-14a1 1 0 0 0 -.998 1.0625l1 16a1 1 0 0 0 .998.9375h12a1 1 0 0 0 .998-.9375l1-16a1 1 0 0 0 -.998-1.0625zm-1.9395 16h-10.121l-.875-14h11.871z"/></g></svg>