<svg height="512" viewBox="0 0 64 64" width="512" xmlns="http://www.w3.org/2000/svg"><g id="delete_user" data-name="delete user"><path d="m32 33.001h-4a5.0059 5.0059 0 0 0 -5 5v4a.9994.9994 0 0 0 1 1h12a.9994.9994 0 0 0 1-1v-4a5.0059 5.0059 0 0 0 -5-5zm3 8h-10v-3a3.0033 3.0033 0 0 1 3-3h4a3.0033 3.0033 0 0 1 3 3zm-5-10a3 3 0 1 0 -3-3 3.0033 3.0033 0 0 0 3 3zm0-4a1 1 0 1 1 -1 1 1.0007 1.0007 0 0 1 1-1zm11-5.002a.9994.9994 0 0 1 -1 1h-5a1 1 0 0 1 0-2h5a.9994.9994 0 0 1 1 1zm-9-13.999a24 24 0 1 0 24 24 24.0275 24.0275 0 0 0 -24-24zm0 46a22 22 0 1 1 22-22 22.0249 22.0249 0 0 1 -22 22z"/></g></svg>