<svg height="512" viewBox="0 0 64 64" width="512" xmlns="http://www.w3.org/2000/svg"><g id="deposite_box" data-name="deposite box"><path d="m41 21h-18a1 1 0 0 0 -1 1v20a1 1 0 0 0 1 1h18a1 1 0 0 0 1-1v-20a1 1 0 0 0 -1-1zm-1 20h-16v-4a1 1 0 0 0 0-2v-7a1 1 0 0 0 0-2v-3h16zm-13-3h8a1 1 0 0 0 1-1v-10a1 1 0 0 0 -1-1h-8a1 1 0 0 0 -1 1v10a1 1 0 0 0 1 1zm1-10h6v8h-6zm9 5v-6a1 1 0 0 1 2 0v6a1 1 0 0 1 -2 0zm-5-25a24 24 0 1 0 24 24 24.0275 24.0275 0 0 0 -24-24zm0 46a22 22 0 1 1 22-22 22.0249 22.0249 0 0 1 -22 22zm5-18a1 1 0 1 1 1 1 1 1 0 0 1 -1-1z"/></g></svg>