<svg height="512" viewBox="0 0 64 64" width="512" xmlns="http://www.w3.org/2000/svg"><g id="disk"><path d="m32 20a12 12 0 1 0 12 12 12.0134 12.0134 0 0 0 -12-12zm0 22a10 10 0 1 1 10-10 10.0115 10.0115 0 0 1 -10 10zm0-15a5 5 0 1 0 5 5 5.0059 5.0059 0 0 0 -5-5zm0 8a3 3 0 1 1 3-3 3.0033 3.0033 0 0 1 -3 3zm-7-3a1 1 0 0 1 -2 0 9.01 9.01 0 0 1 9-9 1 1 0 0 1 0 2 7.0082 7.0082 0 0 0 -7 7zm8 0a1 1 0 1 1 -1-1 1 1 0 0 1 1 1zm-1-24a24 24 0 1 0 24 24 24.0275 24.0275 0 0 0 -24-24zm0 46a22 22 0 1 1 22-22 22.0249 22.0249 0 0 1 -22 22z"/></g></svg>