<svg height="512" viewBox="0 0 64 64" width="512" xmlns="http://www.w3.org/2000/svg"><g id="document"><path d="m36.7686 20.36a1.0011 1.0011 0 0 0 -.7686-.36h-13a1 1 0 0 0 -1 1v22a1 1 0 0 0 1 1h18a1 1 0 0 0 1-1v-16a1.0015 1.0015 0 0 0 -.2314-.64zm.2314 3.4023 1.865 2.2377h-1.865zm3 18.2377h-16v-20h11v5a1 1 0 0 0 1 1h4zm-13-12h10a1 1 0 0 1 0 2h-10a1 1 0 0 1 0-2zm-1-3a1 1 0 0 1 1-1h5a1 1 0 0 1 0 2h-5a1 1 0 0 1 -1-1zm12 8a1 1 0 0 1 -1 1h-10a1 1 0 0 1 0-2h10a1 1 0 0 1 1 1zm0 4a1 1 0 0 1 -1 1h-10a1 1 0 0 1 0-2h10a1 1 0 0 1 1 1zm-6-31a24 24 0 1 0 24 24 24.0275 24.0275 0 0 0 -24-24zm0 46a22 22 0 1 1 22-22 22.0249 22.0249 0 0 1 -22 22z"/></g></svg>