<svg height="512" viewBox="0 0 64 64" width="512" xmlns="http://www.w3.org/2000/svg"><g id="download"><path d="m32 8a24 24 0 1 0 24 24 24.0275 24.0275 0 0 0 -24-24zm0 46a22 22 0 1 1 22-22 22.0249 22.0249 0 0 1 -22 22zm11-18v3.5c0 2.5234-3.0747 4.5-7 4.5h-8c-3.9253 0-7-1.9766-7-4.5v-3.5a1 1 0 0 1 2 0v3.5c0 1.18 2.1382 2.5 5 2.5h8c2.8618 0 5-1.32 5-2.5v-3.5a1 1 0 0 1 2 0zm-11.707 3.707a1 1 0 0 0 1.4141 0l6-6a1 1 0 0 0 -.7071-1.707h-5v-11a1 1 0 0 0 -2 0v11h-5a1 1 0 0 0 -.707 1.707zm4.2929-5.707-3.5859 3.5859-3.5859-3.5859z"/></g></svg>