<svg height="512" viewBox="0 0 64 64" width="512" xmlns="http://www.w3.org/2000/svg"><g id="earphone"><path d="m32 8a24 24 0 1 0 24 24 24.0275 24.0275 0 0 0 -24-24zm0 46a22 22 0 1 1 22-22 22.0249 22.0249 0 0 1 -22 22zm12-24h-1a2.0023 2.0023 0 0 0 -2-2v-3a3.0033 3.0033 0 0 0 -3-3h-12a3.0033 3.0033 0 0 0 -3 3v3a2.002 2.002 0 0 0 -2 2h-1a2.002 2.002 0 0 0 -2 2v6a2.002 2.002 0 0 0 2 2h1a2.002 2.002 0 0 0 2 2h2a2.002 2.002 0 0 0 2-2v-10a2.002 2.002 0 0 0 -2-2v-3a1.0013 1.0013 0 0 1 1-1h12a1.001 1.001 0 0 1 1 1v3a2.0023 2.0023 0 0 0 -2 2v10a2.0023 2.0023 0 0 0 2 2h2a2.0023 2.0023 0 0 0 2-2h1a2.0023 2.0023 0 0 0 2-2v-6a2.0023 2.0023 0 0 0 -2-2zm-24 8v-6h1v6zm5.0015 2h-2.0015v-10h2zm13.9985 0v-10h2l.001 10zm5-2h-1v-6h1z"/></g></svg>