<svg height="512" viewBox="0 0 64 64" width="512" xmlns="http://www.w3.org/2000/svg"><g id="fan"><path d="m32 24a8 8 0 1 0 8 8 8.0092 8.0092 0 0 0 -8-8zm0 14a6 6 0 1 1 6-6 6.0066 6.0066 0 0 1 -6 6zm-9-14a1 1 0 1 1 1 1 1 1 0 0 1 -1-1zm2 16a1 1 0 1 1 -1-1 1 1 0 0 1 1 1zm16 0a1 1 0 1 1 -1-1 1 1 0 0 1 1 1zm0-16a1 1 0 1 1 -1-1 1 1 0 0 1 1 1zm-4 8a1 1 0 0 1 -1 1h-3v3a1 1 0 0 1 -2 0v-3h-3a1 1 0 0 1 0-2h3v-3a1 1 0 0 1 2 0v3h3a1 1 0 0 1 1 1zm-5-24a24 24 0 1 0 24 24 24.0275 24.0275 0 0 0 -24-24zm0 46a22 22 0 1 1 22-22 22.0249 22.0249 0 0 1 -22 22zm9-34h-18a3.0033 3.0033 0 0 0 -3 3v18a3.0033 3.0033 0 0 0 3 3h18a3.0033 3.0033 0 0 0 3-3v-18a3.0033 3.0033 0 0 0 -3-3zm1 21a1.001 1.001 0 0 1 -1 1h-18a1.0013 1.0013 0 0 1 -1-1v-18a1.0013 1.0013 0 0 1 1-1h18a1.001 1.001 0 0 1 1 1z"/></g></svg>