<svg height="512" viewBox="0 0 64 64" width="512" xmlns="http://www.w3.org/2000/svg"><g id="file"><path d="m44 27h-1v-3a1 1 0 0 0 -1-1h-10.6973l-2.748-1.832a1.001 1.001 0 0 0 -.5547-.168h-6a1 1 0 0 0 -1 1v5h-1a1 1 0 0 0 -.99 1.1416l2 14a1 1 0 0 0 .99.8584h20a1 1 0 0 0 .99-.8584l2-14a1 1 0 0 0 -.99-1.1416zm-21-4h4.6973l2.748 1.832a1.001 1.001 0 0 0 .5547.168h10v2h-18zm18.1328 18h-18.2656l-1.7139-12h21.6934zm-16.1328-2v-7a1 1 0 0 1 2 0v7a1 1 0 0 1 -2 0zm3 0v-7a1 1 0 0 1 2 0v7a1 1 0 0 1 -2 0zm4-31a24 24 0 1 0 24 24 24.0275 24.0275 0 0 0 -24-24zm0 46a22 22 0 1 1 22-22 22.0249 22.0249 0 0 1 -22 22z"/></g></svg>