<svg id="flash" height="512" viewBox="0 0 64 64" width="512" xmlns="http://www.w3.org/2000/svg"><path d="m32 19a13 13 0 1 0 13 13 13.0151 13.0151 0 0 0 -13-13zm0 24a11 11 0 1 1 11-11 11.0124 11.0124 0 0 1 -11 11zm0-35a24 24 0 1 0 24 24 24.0275 24.0275 0 0 0 -24-24zm0 46a22 22 0 1 1 22-22 22.0249 22.0249 0 0 1 -22 22zm4.8652-22.502a1.0007 1.0007 0 0 1 .0029.998l-4 7a1 1 0 0 1 -1.7363-.9922l3.1446-5.5038h-6.2764a1 1 0 0 1 -.8682-1.4961l4-7a1 1 0 0 1 1.7363.9922l-3.1445 5.5039h6.2764a1.0009 1.0009 0 0 1 .8652.498z"/></svg>