<svg height="512" viewBox="0 0 64 64" width="512" xmlns="http://www.w3.org/2000/svg"><g id="flash_dixk" data-name="flash dixk"><path d="m38 30v-8a2.002 2.002 0 0 0 -2-2h-8a2.002 2.002 0 0 0 -2 2v8a2.002 2.002 0 0 0 -2 2v10a2.002 2.002 0 0 0 2 2h12a2.002 2.002 0 0 0 2-2v-10a2.002 2.002 0 0 0 -2-2zm-10-8h8v8h-8zm-2 20v-10h12l.0015 10zm9-6h-6a1 1 0 0 0 -1 1v3a1 1 0 0 0 1 1h6a1 1 0 0 0 1-1v-3a1 1 0 0 0 -1-1zm-1 3h-4v-1h4zm-3-14v2a1 1 0 0 1 -2 0v-2a1 1 0 0 1 2 0zm4 0v2a1 1 0 0 1 -2 0v-2a1 1 0 0 1 2 0zm-3-17a24 24 0 1 0 24 24 24.0275 24.0275 0 0 0 -24-24zm0 46a22 22 0 1 1 22-22 22.0249 22.0249 0 0 1 -22 22z"/></g></svg>