<svg height="512" viewBox="0 0 64 64" width="512" xmlns="http://www.w3.org/2000/svg"><g id="folder"><path d="m44 25h-16a.8149.8149 0 0 1 -.5527-.3418l-1.1055-2.2109a2.7863 2.7863 0 0 0 -2.3418-1.4473h-4a2.0023 2.0023 0 0 0 -2 2v18a2.0023 2.0023 0 0 0 2 2h24a2.0023 2.0023 0 0 0 2-2v-14a2.0023 2.0023 0 0 0 -2-2zm0 16h-24v-18h4a.8149.8149 0 0 1 .5527.3418l1.1055 2.2109a2.7863 2.7863 0 0 0 2.3418 1.4473h16zm-21-4h8a1 1 0 0 1 0 2h-8a1 1 0 0 1 0-2zm9-29a24 24 0 1 0 24 24 24.0275 24.0275 0 0 0 -24-24zm0 46a22 22 0 1 1 22-22 22.0249 22.0249 0 0 1 -22 22z"/></g></svg>