<svg height="512" viewBox="0 0 64 64" width="512" xmlns="http://www.w3.org/2000/svg"><g id="garbage"><path d="m29 30v10a1 1 0 0 1 -2 0v-10a1 1 0 0 1 2 0zm8 0v4a1 1 0 0 1 -1 1h-4a1 1 0 0 1 -1-1v-4a1 1 0 0 1 1-1h4a1 1 0 0 1 1 1zm-2 1h-2v2h2zm7-7a1 1 0 0 1 -1 1h-18a1 1 0 0 1 0-2h6v-2a1 1 0 0 1 1-1h4a1 1 0 0 1 1 1v2h6a1 1 0 0 1 1 1zm-9-1v-1h-2v1zm3 13h-4a1 1 0 0 0 0 2h4a1 1 0 0 0 0-2zm0 3h-4a1 1 0 0 0 0 2h4a1 1 0 0 0 0-2zm20-7a24 24 0 1 1 -24-24 24.0275 24.0275 0 0 1 24 24zm-2 0a22 22 0 1 0 -22 22 22.0249 22.0249 0 0 0 22-22zm-13-3v12a3.0033 3.0033 0 0 1 -3 3h-12a3.0033 3.0033 0 0 1 -3-3v-12a3.0033 3.0033 0 0 1 3-3h12a3.0033 3.0033 0 0 1 3 3zm-2 0a1.0013 1.0013 0 0 0 -1-1h-12a1.0013 1.0013 0 0 0 -1 1v12a1.0013 1.0013 0 0 0 1 1h12a1.0013 1.0013 0 0 0 1-1z"/></g></svg>