<svg height="512" viewBox="0 0 64 64" width="512" xmlns="http://www.w3.org/2000/svg"><g id="gift"><path d="m42 25h-8.8157a2.9951 2.9951 0 0 1 2.8157-2 1 1 0 0 0 0-2 4.9814 4.9814 0 0 0 -4 2.0309 4.9814 4.9814 0 0 0 -4-2.0309 1 1 0 0 0 0 2 2.9951 2.9951 0 0 1 2.8157 2h-8.8157a1 1 0 0 0 -1 1v5a1 1 0 0 0 1 1h1v10a1 1 0 0 0 1 1h16a1 1 0 0 0 1-1v-10h1a1 1 0 0 0 1-1v-5a1 1 0 0 0 -1-1zm-19 2h8v3h-8zm16 14h-6v-4a1 1 0 0 0 -2 0v4h-6v-9h14zm2-11h-8v-3h8zm-12 4a1 1 0 0 1 1-1h4a1 1 0 0 1 0 2h-4a1 1 0 0 1 -1-1zm3-26a24 24 0 1 0 24 24 24.0275 24.0275 0 0 0 -24-24zm0 46a22 22 0 1 1 22-22 22.0249 22.0249 0 0 1 -22 22z"/></g></svg>