<svg height="512" viewBox="0 0 64 64" width="512" xmlns="http://www.w3.org/2000/svg"><g id="image"><path d="m42 21h-20a3.0033 3.0033 0 0 0 -3 3v16a3.0033 3.0033 0 0 0 3 3h20a3.0033 3.0033 0 0 0 3-3v-16a3.0033 3.0033 0 0 0 -3-3zm-20 2h20a1.001 1.001 0 0 1 1 1v8.8647l-4.36-3.6332a1.0014 1.0014 0 0 0 -1.291.01l-6.719 5.7585-1.9657-1.7473a1.0007 1.0007 0 0 0 -1.3716.04l-6.2927 6.2932v-15.5859a1.001 1.001 0 0 1 1-1zm12.37 18h-11.9559l5.6264-5.626zm7.63 0h-4.62l-5.2415-4.6591 5.8708-5.0309 4.9907 4.1586v4.5314a1.001 1.001 0 0 1 -1 1zm-15-10a3 3 0 1 0 -3-3 3.0033 3.0033 0 0 0 3 3zm0-4a1 1 0 1 1 -1 1 1.001 1.001 0 0 1 1-1zm5-19a24 24 0 1 0 24 24 24.0275 24.0275 0 0 0 -24-24zm0 46a22 22 0 1 1 22-22 22.0249 22.0249 0 0 1 -22 22z"/></g></svg>