<svg height="512" viewBox="0 0 64 64" width="512" xmlns="http://www.w3.org/2000/svg"><g id="label-2" data-name="label"><path d="m42.7588 23.1816a2.8144 2.8144 0 0 0 -1.9409-1.94l-3.7168-.9287a2.9372 2.9372 0 0 0 -2.6265.7275l-13.4346 13.4337a1.7881 1.7881 0 0 0 .2773 2.8008l2.5781 1.72a5.0441 5.0441 0 0 1 1.1094 1.1094l1.72 2.5791a1.8242 1.8242 0 0 0 1.3335.82 1.659 1.659 0 0 0 .17.0083 1.8373 1.8373 0 0 0 1.2969-.5513l13.4348-13.4355a2.9346 2.9346 0 0 0 .7275-2.6265zm-14.4922 18.209-1.5977-2.396a6.9228 6.9228 0 0 0 -1.6641-1.6641l-2.3948-1.5976 2.8544-2.8546 5.6572 5.6572zm13.2793-13.28-9.01 9.0107-5.6572-5.6572 9.01-9.0107a.9958.9958 0 0 1 .728-.2012l3.7158.9287a.8863.8863 0 0 1 .4858.4849l.9287 3.7178a1.0049 1.0049 0 0 1 -.2011.7272zm-6.3628-3.5356a3 3 0 0 0 4.2412 4.2432l.001-.001a3.0041 3.0041 0 0 0 0-4.2417 3.0719 3.0719 0 0 0 -4.2422-.0003zm2.8276 2.8286a1 1 0 1 1 0-1.4141 1.0014 1.0014 0 0 1 0 1.4143zm-6.0107-19.4036a24 24 0 1 0 24 24 24.0275 24.0275 0 0 0 -24-24zm0 46a22 22 0 1 1 22-22 22.0249 22.0249 0 0 1 -22 22z"/></g></svg>