<svg height="512" viewBox="0 0 64 64" width="512" xmlns="http://www.w3.org/2000/svg"><g id="label"><path d="m42.7588 23.1816a2.8144 2.8144 0 0 0 -1.9409-1.94l-3.7168-.9287a2.9369 2.9369 0 0 0 -2.6265.7275l-13.4346 13.4337a2.0019 2.0019 0 0 0 0 2.8281l5.6573 5.6578a2.0028 2.0028 0 0 0 2.8281 0l13.4346-13.4351a2.9346 2.9346 0 0 0 .7275-2.6265zm-14.6475 18.3648-5.6572-5.6582 3.01-3.01 5.6576 5.6576zm13.4346-13.4356-9.01 9.0108-5.6575-5.6575 9.01-9.01a1.0447 1.0447 0 0 1 .6187-.2129.4637.4637 0 0 1 .1094.0117l3.7158.9287a.8863.8863 0 0 1 .4858.4849l.9287 3.7178a1.0049 1.0049 0 0 1 -.2009.7265zm-6.3628-3.5356a3 3 0 0 0 4.2412 4.2432l.001-.001a3.0041 3.0041 0 0 0 0-4.2417 3.0719 3.0719 0 0 0 -4.2422-.0005zm2.8276 2.8286a1 1 0 1 1 0-1.4141 1.0014 1.0014 0 0 1 0 1.4141zm-6.0107-19.4038a24 24 0 1 0 24 24 24.0275 24.0275 0 0 0 -24-24zm0 46a22 22 0 1 1 22-22 22.0249 22.0249 0 0 1 -22 22z"/></g></svg>