<svg height="512" viewBox="0 0 64 64" width="512" xmlns="http://www.w3.org/2000/svg"><g id="laptop"><path d="m45 37h-1v-16a1 1 0 0 0 -1-1h-22a1 1 0 0 0 -1 1v16h-1a1 1 0 0 0 -1 1v5a1 1 0 0 0 1 1h26a1 1 0 0 0 1-1v-5a1 1 0 0 0 -1-1zm-23-15h20v15h-7a1 1 0 0 0 -1 1v1h-4v-1a1 1 0 0 0 -1-1h-7zm22 20h-24v-3h8v1a1 1 0 0 0 1 1h6a1 1 0 0 0 1-1v-1h8zm-3-7v-11a1 1 0 0 0 -1-1h-16a1 1 0 0 0 -1 1v11a1 1 0 0 0 1 1h16a1 1 0 0 0 1-1zm-2-1h-14v-9h14zm-7-26a24 24 0 1 0 24 24 24.0275 24.0275 0 0 0 -24-24zm0 46a22 22 0 1 1 22-22 22.0249 22.0249 0 0 1 -22 22z"/></g></svg>