<svg height="512" viewBox="0 0 64 64" width="512" xmlns="http://www.w3.org/2000/svg"><g id="left_arrow" data-name="left arrow"><path d="m32 8a24 24 0 1 0 24 24 24.0275 24.0275 0 0 0 -24-24zm0 46a22 22 0 1 1 22-22 22.0249 22.0249 0 0 1 -22 22zm0-35a13 13 0 1 0 13 13 13.0147 13.0147 0 0 0 -13-13zm0 24a11 11 0 1 1 11-11 11.0124 11.0124 0 0 1 -11 11zm8-11a1 1 0 0 1 -1 1h-12.1317l2.9637 4.4453a1 1 0 1 1 -1.6641 1.1094l-4-6a.9993.9993 0 0 1 0-1.1094l4-6a1 1 0 0 1 1.6641 1.1094l-2.9637 4.4453h12.1317a1 1 0 0 1 1 1z"/></g></svg>