<svg height="512" viewBox="0 0 64 64" width="512" xmlns="http://www.w3.org/2000/svg"><g id="location"><path d="m32 8a24 24 0 1 0 24 24 24.0275 24.0275 0 0 0 -24-24zm0 46a22 22 0 1 1 22-22 22.0249 22.0249 0 0 1 -22 22zm0-31a4 4 0 1 0 4 4 4.0043 4.0043 0 0 0 -4-4zm0 6a2 2 0 1 1 2-2 2.0023 2.0023 0 0 1 -2 2zm0-10a8.0092 8.0092 0 0 0 -8 8c0 3.2793 4.8218 18 8 18s8-14.7207 8-18a8.0092 8.0092 0 0 0 -8-8zm0 23.916c-1.6523-1.416-6-12.2217-6-15.916a6 6 0 0 1 12 0c0 3.6943-4.3477 14.5-6 15.916z"/></g></svg>