<svg height="512" viewBox="0 0 64 64" width="512" xmlns="http://www.w3.org/2000/svg"><g id="mail"><path d="m42 21h-20a3.0033 3.0033 0 0 0 -3 3v16a3.0033 3.0033 0 0 0 3 3h20a3.0033 3.0033 0 0 0 3-3v-16a3.0033 3.0033 0 0 0 -3-3zm-20 2h20a.994.994 0 0 1 .9863.9323l-11.0244 6.41-10.9486-6.408a.9941.9941 0 0 1 .9867-.9343zm21 17a1.001 1.001 0 0 1 -1 1h-20a1.001 1.001 0 0 1 -1-1v-13.7559l10.4551 6.1192a1.0016 1.0016 0 0 0 1.0078.0015l10.5371-6.1263zm-11-32a24 24 0 1 0 24 24 24.0275 24.0275 0 0 0 -24-24zm0 46a22 22 0 1 1 22-22 22.0249 22.0249 0 0 1 -22 22z"/></g></svg>