<svg height="512" viewBox="0 0 64 64" width="512" xmlns="http://www.w3.org/2000/svg"><g id="microphone"><path d="m30 34h4a3.0033 3.0033 0 0 0 3-3v-9a3.0033 3.0033 0 0 0 -3-3h-4a3.0033 3.0033 0 0 0 -3 3v9a3.0033 3.0033 0 0 0 3 3zm-1-12a1.001 1.001 0 0 1 1-1h4a1.0007 1.0007 0 0 1 1 1v9a1.0007 1.0007 0 0 1 -1 1h-4a1.001 1.001 0 0 1 -1-1zm12 10v3a3.0033 3.0033 0 0 1 -3 3h-5v5h2a1 1 0 0 1 0 2h-6a1 1 0 0 1 0-2h2v-5h-5a3.0033 3.0033 0 0 1 -3-3v-3a1 1 0 0 1 2 0v3a1.001 1.001 0 0 0 1 1h12a1.0007 1.0007 0 0 0 1-1v-3a1 1 0 0 1 2 0zm-11-9a1 1 0 1 1 1 1 .9994.9994 0 0 1 -1-1zm0 3a1 1 0 1 1 1 1 .9994.9994 0 0 1 -1-1zm0 3a1 1 0 1 1 1 1 .9994.9994 0 0 1 -1-1zm2-21a24 24 0 1 0 24 24 24.0275 24.0275 0 0 0 -24-24zm0 46a22 22 0 1 1 22-22 22.0249 22.0249 0 0 1 -22 22z"/></g></svg>