<svg height="512" viewBox="0 0 64 64" width="512" xmlns="http://www.w3.org/2000/svg"><g id="mouse"><path d="m35 20h-6a5.0059 5.0059 0 0 0 -5 5v14a5.0059 5.0059 0 0 0 5 5h6a5.0059 5.0059 0 0 0 5-5v-14a5.0059 5.0059 0 0 0 -5-5zm-9 5a3.0033 3.0033 0 0 1 3-3h2v2a2.0023 2.0023 0 0 0 -2 2v2a2.0023 2.0023 0 0 0 2 2v2h-5zm7 1v2h-2v-2zm5 13a3.0033 3.0033 0 0 1 -3 3h-6a3.0033 3.0033 0 0 1 -3-3v-5h12zm0-7h-5v-2a2.0023 2.0023 0 0 0 2-2v-2a2.0023 2.0023 0 0 0 -2-2v-2h2a3.0033 3.0033 0 0 1 3 3zm-6-24a24 24 0 1 0 24 24 24.0275 24.0275 0 0 0 -24-24zm0 46a22 22 0 1 1 22-22 22.0249 22.0249 0 0 1 -22 22z"/></g></svg>