<svg height="512" viewBox="0 0 64 64" width="512" xmlns="http://www.w3.org/2000/svg"><g id="mute"><path d="m32 8a24 24 0 1 0 24 24 24.0275 24.0275 0 0 0 -24-24zm0 46a22 22 0 1 1 22-22 22.0249 22.0249 0 0 1 -22 22zm10.7793-24.8281-2.8283 2.8281 2.8282 2.8286a1 1 0 0 1 -1.4141 1.4141l-2.8281-2.8285-2.828 2.829a1 1 0 0 1 -1.4141-1.4141l2.8283-2.8291-2.8282-2.8286a1 1 0 0 1 1.4141-1.4141l2.8281 2.8285 2.8281-2.8285a1 1 0 0 1 1.4141 1.4141zm-12.2534-5.0235a1.0013 1.0013 0 0 0 -.9731-.0439l-3.7911 1.8955h-3.7617a.9994.9994 0 0 0 -1 1v10a.9994.9994 0 0 0 1 1h3.7656l3.7871 1.8936a.9957.9957 0 0 0 .9731-.0439.9685.9685 0 0 0 .4742-.8507v-14a1.001 1.001 0 0 0 -.4741-.8506zm-5.5259 11.8516h-2v-8h2zm4 1.3809-2-1v-8.7637l2-1z"/></g></svg>