<svg height="512" viewBox="0 0 64 64" width="512" xmlns="http://www.w3.org/2000/svg"><g id="pen_tablet" data-name="pen tablet"><path d="m37 21h-16a3.0033 3.0033 0 0 0 -3 3v16a3.0033 3.0033 0 0 0 3 3h16a3.0033 3.0033 0 0 0 3-3v-16a3.0033 3.0033 0 0 0 -3-3zm-17 3a1.0013 1.0013 0 0 1 1-1h16a1.0013 1.0013 0 0 1 1 1v3h-18zm18 16a1.0013 1.0013 0 0 1 -1 1h-16a1.0013 1.0013 0 0 1 -1-1v-11h18zm-1-15a1 1 0 0 1 -1 1h-3a1 1 0 0 1 0-2h3a1 1 0 0 1 1 1zm-9 0a1 1 0 0 1 -1 1h-5a1 1 0 0 1 0-2h5a1 1 0 0 1 1 1zm3 0a1 1 0 1 1 -1-1 1 1 0 0 1 1 1zm13-4h-1a2.002 2.002 0 0 0 -2 2v14.6a9.3744 9.3744 0 0 0 .3228 2.2417l.4355 1.4814c.2456.8346.8794 1.6769 1.7417 1.6769s1.4961-.8423 1.7417-1.6772l.4355-1.4814a9.3744 9.3744 0 0 0 .3228-2.2414v-14.6a2.002 2.002 0 0 0 -2-2zm-1 15 .0018-9h.9982v9zm1-13v2h-.9975v-2zm-.5 17.1558-.2583-.8789a7.4411 7.4411 0 0 1 -.2212-1.2769h.959a7.4411 7.4411 0 0 1 -.2212 1.2769zm-11.5-32.1558a24 24 0 1 0 24 24 24.0275 24.0275 0 0 0 -24-24zm0 46a22 22 0 1 1 22-22 22.0249 22.0249 0 0 1 -22 22z"/></g></svg>