<svg height="512" viewBox="0 0 64 64" width="512" xmlns="http://www.w3.org/2000/svg"><g id="pie_chart" data-name="pie chart"><path d="m42 32h-10v-10a1 1 0 0 0 -1-1 12 12 0 1 0 12 12 1 1 0 0 0 -1-1zm-11 11a10 10 0 0 1 -1-19.95v9.95a1 1 0 0 0 1 1h9.95a10.0146 10.0146 0 0 1 -9.95 9zm3-24a1 1 0 0 0 -1 1v10a1 1 0 0 0 1 1h10a1 1 0 0 0 1-1 11.0124 11.0124 0 0 0 -11-11zm1 10v-7.9448a9.018 9.018 0 0 1 7.9448 7.9448zm-3-21a24 24 0 1 0 24 24 24.0275 24.0275 0 0 0 -24-24zm0 46a22 22 0 1 1 22-22 22.0249 22.0249 0 0 1 -22 22z"/></g></svg>