<svg height="512" viewBox="0 0 64 64" width="512" xmlns="http://www.w3.org/2000/svg"><g id="power"><path d="m32 19a13 13 0 1 0 13 13 13.0147 13.0147 0 0 0 -13-13zm0 24a11 11 0 1 1 11-11 11.0124 11.0124 0 0 1 -11 11zm8-11a8 8 0 1 1 -12.5283-6.5957 1 1 0 0 1 1.1328 1.6484 6 6 0 1 0 6.7832-.0059 1 1 0 1 1 1.1309-1.6494 8.0025 8.0025 0 0 1 3.4814 6.6026zm-9-4v-4a1 1 0 0 1 2 0v4a1 1 0 0 1 -2 0zm1-20a24 24 0 1 0 24 24 24.0275 24.0275 0 0 0 -24-24zm0 46a22 22 0 1 1 22-22 22.0249 22.0249 0 0 1 -22 22z"/></g></svg>