<svg height="512" viewBox="0 0 64 64" width="512" xmlns="http://www.w3.org/2000/svg"><g id="presentation"><path d="m32 8a24 24 0 1 0 24 24 24.0275 24.0275 0 0 0 -24-24zm0 46a22 22 0 1 1 22-22 22.0249 22.0249 0 0 1 -22 22zm9-33h-18a3.0033 3.0033 0 0 0 -3 3v11.0693a3.0033 3.0033 0 0 0 3 3h6v2.9307h-4a1 1 0 0 0 0 2h14a1 1 0 0 0 0-2h-4v-2.9307h6a3.0033 3.0033 0 0 0 3-3v-11.0693a3.0033 3.0033 0 0 0 -3-3zm-8 20h-2v-2.9307h2zm9-5.9307a1.0013 1.0013 0 0 1 -1 1h-18a1.0013 1.0013 0 0 1 -1-1v-11.0693a1.0013 1.0013 0 0 1 1-1h18a1.0013 1.0013 0 0 1 1 1zm-12.5-11.1054h-5a1.5016 1.5016 0 0 0 -1.5 1.5v8.1416a1.5016 1.5016 0 0 0 1.5 1.5h5a1.5016 1.5016 0 0 0 1.5-1.5v-8.1416a1.5016 1.5016 0 0 0 -1.5-1.5zm-.5 9.1416h-4v-7.1416h4zm12-8.0581a1 1 0 0 1 -1 1h-7a1 1 0 0 1 0-2h7a1 1 0 0 1 1 1zm0 2.9917a1 1 0 0 1 -1 1h-7a1 1 0 0 1 0-2h7a1 1 0 0 1 1 1zm0 2.9917a1 1 0 0 1 -1 1h-7a1 1 0 0 1 0-2h7a1 1 0 0 1 1 1zm0 2.9917a1 1 0 0 1 -1 1h-7a1 1 0 0 1 0-2h7a1 1 0 0 1 1 1z"/></g></svg>