<svg height="512" viewBox="0 0 64 64" width="512" xmlns="http://www.w3.org/2000/svg"><g id="printer"><path d="m43 29h-3v-8a1 1 0 0 0 -1-1h-14a1 1 0 0 0 -1 1v8h-3a1 1 0 0 0 -1 1v9a1 1 0 0 0 1 1h3v3a1 1 0 0 0 1 1h14a1 1 0 0 0 1-1v-3h3a1 1 0 0 0 1-1v-9a1 1 0 0 0 -1-1zm-17-7h12v7h-12zm12 20h-12v-7h12zm4-4h-2v-3a1 1 0 0 0 0-2h-16a1 1 0 0 0 0 2v3h-2v-7h20zm-5 2a1 1 0 0 1 -1 1h-8a1 1 0 0 1 0-2h8a1 1 0 0 1 1 1zm0-3a1 1 0 0 1 -1 1h-8a1 1 0 0 1 0-2h8a1 1 0 0 1 1 1zm-5-29a24 24 0 1 0 24 24 24.0275 24.0275 0 0 0 -24-24zm0 46a22 22 0 1 1 22-22 22.0249 22.0249 0 0 1 -22 22z"/></g></svg>