<svg height="512" viewBox="0 0 64 64" width="512" xmlns="http://www.w3.org/2000/svg"><g id="projector"><path d="m42 23h-20a3.0033 3.0033 0 0 0 -3 3v8a3.0033 3.0033 0 0 0 3 3h1v3a1 1 0 0 0 1 1h5a1 1 0 0 0 1-1v-3h4v3a1 1 0 0 0 1 1h5a1 1 0 0 0 1-1v-3h1a3.0033 3.0033 0 0 0 3-3v-8a3.0033 3.0033 0 0 0 -3-3zm-14 16h-3v-2h3zm11 0h-3v-2h3zm4-5a1.001 1.001 0 0 1 -1 1h-20a1.001 1.001 0 0 1 -1-1v-8a1.001 1.001 0 0 1 1-1h20a1.001 1.001 0 0 1 1 1zm-11-8a4 4 0 1 0 4 4 4.0043 4.0043 0 0 0 -4-4zm0 6a2 2 0 1 1 2-2 2.0023 2.0023 0 0 1 -2 2zm10-5a1 1 0 0 1 -1 1h-4a1 1 0 0 1 0-2h4a1 1 0 0 1 1 1zm0 3a1 1 0 0 1 -1 1h-3a1 1 0 0 1 0-2h3a1 1 0 0 1 1 1zm-18-3a1 1 0 1 1 -1-1 1 1 0 0 1 1 1zm9 3a1 1 0 1 1 -1-1 1 1 0 0 1 1 1zm-6-3a1 1 0 1 1 -1-1 1 1 0 0 1 1 1zm5-19a24 24 0 1 0 24 24 24.0275 24.0275 0 0 0 -24-24zm0 46a22 22 0 1 1 22-22 22.0249 22.0249 0 0 1 -22 22z"/></g></svg>