<svg height="512" viewBox="0 0 64 64" width="512" xmlns="http://www.w3.org/2000/svg"><g id="right_arrow" data-name="right arrow"><path d="m8 32a24 24 0 1 0 24-24 24.0275 24.0275 0 0 0 -24 24zm2 0a22 22 0 1 1 22 22 22.0249 22.0249 0 0 1 -22-22zm9 0a13 13 0 1 0 13-13 13.0147 13.0147 0 0 0 -13 13zm2 0a11 11 0 1 1 11 11 11.0124 11.0124 0 0 1 -11-11zm4-1h12.1317l-2.9637-4.4453a1 1 0 1 1 1.6641-1.1094l4 6a.9993.9993 0 0 1 0 1.1094l-4 6a1 1 0 0 1 -1.6641-1.1094l2.9637-4.4453h-12.1317a1 1 0 0 1 0-2z"/></g></svg>