<svg height="512" viewBox="0 0 64 64" width="512" xmlns="http://www.w3.org/2000/svg"><g id="safety_box" data-name="safety box"><path d="m41 21h-18a1 1 0 0 0 -1 1v20a1 1 0 0 0 1 1h18a1 1 0 0 0 1-1v-20a1 1 0 0 0 -1-1zm-1 20h-16v-4a1 1 0 0 0 0-2v-7a1 1 0 0 0 0-2v-3h16zm-13-3h10a1 1 0 0 0 1-1v-10a1 1 0 0 0 -1-1h-10a1 1 0 0 0 -1 1v10a1 1 0 0 0 1 1zm1-10h8v8h-8zm7 4a1 1 0 1 1 -1-1 1 1 0 0 1 1 1zm-3-24a24 24 0 1 0 24 24 24.0275 24.0275 0 0 0 -24-24zm0 46a22 22 0 1 1 22-22 22.0249 22.0249 0 0 1 -22 22z"/></g></svg>