<svg height="512" viewBox="0 0 64 64" width="512" xmlns="http://www.w3.org/2000/svg"><g id="scan"><path d="m40.001 37.001v-10a3.0033 3.0033 0 0 0 -3-3h-10.001a3.0033 3.0033 0 0 0 -3 3v10a3.0033 3.0033 0 0 0 3 3h10a3.0033 3.0033 0 0 0 3.001-3zm-2 0a1.001 1.001 0 0 1 -1 1h-10.001a1.001 1.001 0 0 1 -1-1v-10a1.001 1.001 0 0 1 1-1h10a1.001 1.001 0 0 1 1 1zm-18-12v-2a3.0033 3.0033 0 0 1 3-3h2a1 1 0 0 1 0 2h-2.001a1.001 1.001 0 0 0 -1 1v2a1 1 0 0 1 -2 0zm23.999-2v2a1 1 0 0 1 -2 0v-2a1.001 1.001 0 0 0 -1-1h-2a1 1 0 0 1 0-2h2a3.0033 3.0033 0 0 1 3 3zm-18 19.998a1 1 0 0 1 -1 1h-2a3.0033 3.0033 0 0 1 -3-3v-2a1 1 0 0 1 2 0v2a1.001 1.001 0 0 0 1 1h2a1 1 0 0 1 1 1zm17.999-4v2a3.0033 3.0033 0 0 1 -3 3h-1.999a1 1 0 0 1 0-2h2a1.001 1.001 0 0 0 1-1v-2a1 1 0 0 1 2 0zm-11.999-30.999a24 24 0 1 0 24 24 24.0275 24.0275 0 0 0 -24-24zm0 46a22 22 0 1 1 22-22 22.0249 22.0249 0 0 1 -22 22z"/></g></svg>