<svg height="512" viewBox="0 0 64 64" width="512" xmlns="http://www.w3.org/2000/svg"><g id="scanner"><path d="m39 37.9741a1 1 0 0 1 -1 1h-12a1 1 0 0 1 0-2h12a1 1 0 0 1 1 1zm2-.9672a.9983.9983 0 1 0 1 .9982.9985.9985 0 0 0 -1-.9981zm-18 0a.9983.9983 0 1 0 1 .9982.9985.9985 0 0 0 -1-.9981zm33-5.0069a24 24 0 1 1 -24-24 24.0275 24.0275 0 0 1 24 24zm-2 0a22 22 0 1 0 -22 22 22.0249 22.0249 0 0 0 22-22zm-9 0v8a2.0023 2.0023 0 0 1 -2 2h-22a2.0023 2.0023 0 0 1 -2-2v-8a2.0023 2.0023 0 0 1 2-2h.7732l19.8557-7.9287a1 1 0 0 1 .7422 1.8574l-15.2042 6.0713h15.8331a2.0023 2.0023 0 0 1 2 2zm-2 0h-22v1.979h22zm.001 8v-4.021h-22.001v4.021z"/></g></svg>