<svg height="512" viewBox="0 0 64 64" width="512" xmlns="http://www.w3.org/2000/svg"><g id="search"><path d="m33.3389 25.4922a1 1 0 1 1 -1.7227 1.0156 3 3 0 0 0 -4.1084-1.06 1 1 0 0 1 -1.0156-1.7227 4.9989 4.9989 0 0 1 6.8467 1.7666zm22.6611 6.5078a24 24 0 1 1 -24-24 24.0275 24.0275 0 0 1 24 24zm-2 0a22 22 0 1 0 -22 22 22.0249 22.0249 0 0 0 22-22zm-10.291 10.2949a1.0011 1.0011 0 0 1 -.0039 1.4141.986.986 0 0 1 -1.4141-.0039l-7.6573-7.6968a9.0428 9.0428 0 1 1 1.4084-1.42zm-14.709-6.2949a7 7 0 1 0 -7-7 7.0082 7.0082 0 0 0 7 7z"/></g></svg>