<?xml version="1.0" encoding="UTF-8"?>
<svg xmlns="http://www.w3.org/2000/svg" viewBox="0 0 64 64" width="512" height="512"><g id="setting"><path d="M42,28h-.3418l.2427-.2422a3.0045,3.0045,0,0,0-.001-4.2432l-1.4141-1.4141a3.003,3.003,0,0,0-4.2427,0L36,22.3438V22a3.0033,3.0033,0,0,0-3-3H31a3.0033,3.0033,0,0,0-3,3v.3418l-.2412-.2412a3.003,3.003,0,0,0-4.2427,0l-1.415,1.4141a3.0045,3.0045,0,0,0,.001,4.2432L22.3438,28H22a3.0033,3.0033,0,0,0-3,3v2a3.0033,3.0033,0,0,0,3,3h.3438l-.2427.2422a3.005,3.005,0,0,0,0,4.2432l1.4141,1.4141a3.0024,3.0024,0,0,0,4.2422,0L28,41.6572V42a3.0033,3.0033,0,0,0,3,3h2a3.0033,3.0033,0,0,0,3-3v-.3447l.2441.2441a3.0024,3.0024,0,0,0,4.2422,0l1.4146-1.4141a3.0045,3.0045,0,0,0-.001-4.2432L41.6582,36H42a3.0033,3.0033,0,0,0,3-3V31A3.0033,3.0033,0,0,0,42,28Zm1,5a1.001,1.001,0,0,1-1,1h-.7563a1.7237,1.7237,0,0,0-1.2925,3.1211l.5347.5352a1.0021,1.0021,0,0,1,0,1.415l-1.4141,1.4141a1.0032,1.0032,0,0,1-1.4141,0l-.5371-.5371A1.7239,1.7239,0,0,0,34,41.2412V42a1.001,1.001,0,0,1-1,1H31a1.001,1.001,0,0,1-1-1v-.7568a1.8668,1.8668,0,0,0-1.0327-1.9209,1.4812,1.4812,0,0,0-.5664-.1094,2.1557,2.1557,0,0,0-1.522.7373l-.5352.5352a1.0032,1.0032,0,0,1-1.4141,0l-1.4136-1.4141a1.0026,1.0026,0,0,1-.001-1.415l.5361-.5352A1.7239,1.7239,0,0,0,22.7583,34H22a1.001,1.001,0,0,1-1-1V31a1.001,1.001,0,0,1,1-1h.7583a1.7237,1.7237,0,0,0,1.2925-3.1211l-.5347-.5352a1.0021,1.0021,0,0,1,0-1.415L24.93,23.5156a1.0026,1.0026,0,0,1,1.415-.001l.5342.5342A1.7239,1.7239,0,0,0,30,22.7559V22a1.001,1.001,0,0,1,1-1h2a1.001,1.001,0,0,1,1,1v.7578a1.7239,1.7239,0,0,0,3.1211,1.293l.5361-.5361a1.0038,1.0038,0,0,1,1.4146,0l1.4141,1.4141a1.0026,1.0026,0,0,1,.001,1.415l-.5361.5352A1.7239,1.7239,0,0,0,41.2437,30H42a1.001,1.001,0,0,1,1,1ZM32,27a5,5,0,1,0,5,5A5.0059,5.0059,0,0,0,32,27Zm0,8a3,3,0,1,1,3-3A3.0033,3.0033,0,0,1,32,35ZM32,8A24,24,0,1,0,56,32,24.0275,24.0275,0,0,0,32,8Zm0,46A22,22,0,1,1,54,32,22.0249,22.0249,0,0,1,32,54Z"/></g></svg>
