<svg height="512" viewBox="0 0 64 64" width="512" xmlns="http://www.w3.org/2000/svg"><g id="share"><path d="m39 28a4 4 0 1 0 -4-4 3.933 3.933 0 0 0 .0493.4871l-7.2866 4.6324a4.0033 4.0033 0 1 0 -.4276 6.114l7.6655 4.76-.0006.0065a4.0476 4.0476 0 1 0 .5624-2.0114l-6.943-4.3118a3.7688 3.7688 0 0 0 .1847-2.85l6.9977-4.4487a3.9842 3.9842 0 0 0 3.1982 1.6219zm0 10a2 2 0 1 1 -2 2 2.0026 2.0026 0 0 1 2-2zm-16-6a2 2 0 1 1 2 2 2.0026 2.0026 0 0 1 -2-2zm16-10a2 2 0 1 1 -2 2 2.0026 2.0026 0 0 1 2-2zm-7-14a24 24 0 1 0 24 24 24.0275 24.0275 0 0 0 -24-24zm0 46a22 22 0 1 1 22-22 22.0249 22.0249 0 0 1 -22 22z"/></g></svg>