<svg height="512" viewBox="0 0 64 64" width="512" xmlns="http://www.w3.org/2000/svg"><g id="shopping_bag" data-name="shopping bag"><path d="m32 8a24 24 0 1 0 24 24 24.0275 24.0275 0 0 0 -24-24zm0 46a22 22 0 1 1 22-22 22.0249 22.0249 0 0 1 -22 22zm6-27h-1v-4c0-2.2056-2.2432-4-5-4s-5 1.7944-5 4v4h-1a3.0033 3.0033 0 0 0 -3 3v12a3.0033 3.0033 0 0 0 3 3h12a3.0033 3.0033 0 0 0 3-3v-12a3.0033 3.0033 0 0 0 -3-3zm-9-4c0-1.084 1.374-2 3-2s3 .916 3 2v4h-6zm10 19a1.001 1.001 0 0 1 -1 1h-12a1.001 1.001 0 0 1 -1-1v-12a1.001 1.001 0 0 1 1-1h1v3a1 1 0 0 0 2 0v-3h6v3a1 1 0 0 0 2 0v-3h1a1.001 1.001 0 0 1 1 1z"/></g></svg>