<?xml version="1.0" encoding="UTF-8"?>
<svg xmlns="http://www.w3.org/2000/svg" viewBox="0 0 64 64" width="512" height="512"><g id="shopping_cart" data-name="shopping cart"><path d="M26.9351,39A.9349.9349,0,1,1,26,38.0648.9349.9349,0,0,1,26.9351,39ZM44,39a3.9915,3.9915,0,0,1-7.858,1H29.858A3.9915,3.9915,0,1,1,25,35.142V25a2.002,2.002,0,0,0-2-2H21a1,1,0,0,1,0-2h2a4.0046,4.0046,0,0,1,4,4H42a1,1,0,0,1,.9619,1.2749l-2,7A1.0009,1.0009,0,0,1,40,34a5.45,5.45,0,0,0-4.168,2.5547A1,1,0,0,1,35,37H31a1,1,0,0,1-.832-.4453A6.6766,6.6766,0,0,0,27,34.1481v.994A3.9946,3.9946,0,0,1,29.858,38H36.142A3.9915,3.9915,0,0,1,44,39ZM27,32.0909A8.01,8.01,0,0,1,31.4985,35h2.9868a7.5515,7.5515,0,0,1,4.7373-2.9209L40.6738,27H27ZM28,39a2,2,0,1,0-2,2A2.002,2.002,0,0,0,28,39Zm14,0a2,2,0,1,0-2,2A2.0023,2.0023,0,0,0,42,39Zm-2-1a1,1,0,1,0,1,1A1,1,0,0,0,40,38Zm-1-9a1,1,0,0,0-1-1H29a1,1,0,0,0,0,2h9A1,1,0,0,0,39,29Zm17,3A24,24,0,1,1,32,8,24.0275,24.0275,0,0,1,56,32Zm-2,0A22,22,0,1,0,32,54,22.0249,22.0249,0,0,0,54,32Z"/></g></svg>
