<svg height="512" viewBox="0 0 64 64" width="512" xmlns="http://www.w3.org/2000/svg"><g id="smartphone"><path d="m37 19h-10a3.0033 3.0033 0 0 0 -3 3v20a3.0033 3.0033 0 0 0 3 3h10a3.0033 3.0033 0 0 0 3-3v-20a3.0033 3.0033 0 0 0 -3-3zm-10 2h10a1.0013 1.0013 0 0 1 1 1v1h-12v-1a1.0013 1.0013 0 0 1 1-1zm11 4v12h-12v-12zm-1 18h-10a1.0013 1.0013 0 0 1 -1-1v-3h12v3a1.0013 1.0013 0 0 1 -1 1zm-5-35a24 24 0 1 0 24 24 24.0275 24.0275 0 0 0 -24-24zm0 46a22 22 0 1 1 22-22 22.0249 22.0249 0 0 1 -22 22zm1-13a1 1 0 1 1 -1-1 1 1 0 0 1 1 1z"/></g></svg>