<svg height="512" viewBox="0 0 64 64" width="512" xmlns="http://www.w3.org/2000/svg"><g id="star"><path d="m43.1514 28.415-7.0733-1.081-3.1729-6.7588a1 1 0 0 0 -1.8105 0l-3.1728 6.7588-7.0733 1.081a1 1 0 0 0 -.5645 1.6865l5.1475 5.2754-1.2178 7.4619a1 1 0 0 0 1.4707 1.0361l6.3155-3.4901 6.3154 3.49a.9989.9989 0 0 0 1.06-.0576 1.0016 1.0016 0 0 0 .4111-.9785l-1.2181-7.4617 5.1475-5.2754a1 1 0 0 0 -.5645-1.6865zm-6.3672 5.9268a1.0012 1.0012 0 0 0 -.2715.8594l.9678 5.9277-4.9971-2.7617a.9972.9972 0 0 0 -.9668 0l-4.9966 2.7617.9678-5.9277a1.0013 1.0013 0 0 0 -.2715-.8594l-4.1406-4.2441 5.6763-.8677a.9991.9991 0 0 0 .7539-.5635l2.4941-5.313 2.4941 5.3135a.9991.9991 0 0 0 .7539.5635l5.6768.8672zm-4.7842-26.3418a24 24 0 1 0 24 24 24.0275 24.0275 0 0 0 -24-24zm0 46a22 22 0 1 1 22-22 22.0249 22.0249 0 0 1 -22 22z"/></g></svg>