<svg height="512" viewBox="0 0 64 64" width="512" xmlns="http://www.w3.org/2000/svg"><g id="statistics"><path d="m23 40h4a1 1 0 0 0 1-1v-13a1 1 0 0 0 -1-1h-4a1 1 0 0 0 -1 1v13a1 1 0 0 0 1 1zm1-13h2v11h-2zm6 13h4a1 1 0 0 0 1-1v-15a1 1 0 0 0 -1-1h-4a1 1 0 0 0 -1 1v15a1 1 0 0 0 1 1zm1-15h2v13h-2zm10-4h-4a1 1 0 0 0 -1 1v17a1 1 0 0 0 1 1h4a1 1 0 0 0 1-1v-17a1 1 0 0 0 -1-1zm-1 17h-2v-15h2zm2 4a1 1 0 0 1 -1 1h-18a1 1 0 0 1 0-2h18a1 1 0 0 1 1 1zm-10-34a24 24 0 1 0 24 24 24.0275 24.0275 0 0 0 -24-24zm0 46a22 22 0 1 1 22-22 22.0249 22.0249 0 0 1 -22 22z"/></g></svg>