<svg height="512" viewBox="0 0 64 64" width="512" xmlns="http://www.w3.org/2000/svg"><g id="switch"><path d="m40 19h-16a5.0059 5.0059 0 0 0 -5 5v2a5.0059 5.0059 0 0 0 5 5h16a5.0059 5.0059 0 0 0 5-5v-2a5.0059 5.0059 0 0 0 -5-5zm3 7a3.0033 3.0033 0 0 1 -3 3h-16a3.0033 3.0033 0 0 1 -3-3v-2a3.0033 3.0033 0 0 1 3-3h16a3.0033 3.0033 0 0 1 3 3zm-17.0605-4a3.0006 3.0006 0 1 0 2.94 3 2.9733 2.9733 0 0 0 -2.94-3zm0 4a1.0019 1.0019 0 1 1 .94-1 .9726.9726 0 0 1 -.94 1zm14.0605 7h-16a5.0059 5.0059 0 0 0 -5 5v2a5.0059 5.0059 0 0 0 5 5h16a5.0059 5.0059 0 0 0 5-5v-2a5.0059 5.0059 0 0 0 -5-5zm3 7a3.0033 3.0033 0 0 1 -3 3h-16a3.0033 3.0033 0 0 1 -3-3v-2a3.0033 3.0033 0 0 1 3-3h16a3.0033 3.0033 0 0 1 3 3zm-17.0605-4a3.0006 3.0006 0 1 0 2.94 3 2.9733 2.9733 0 0 0 -2.94-3zm0 4a1.0019 1.0019 0 1 1 .94-1 .9726.9726 0 0 1 -.94 1zm6.0605-32a24 24 0 1 0 24 24 24.0275 24.0275 0 0 0 -24-24zm0 46a22 22 0 1 1 22-22 22.0249 22.0249 0 0 1 -22 22z"/></g></svg>