<svg height="512" viewBox="0 0 64 64" width="512" xmlns="http://www.w3.org/2000/svg"><g id="task"><path d="m40 20h-16a1 1 0 0 0 -1 1v22a1 1 0 0 0 1 1h16a1 1 0 0 0 1-1v-22a1 1 0 0 0 -1-1zm-1 22h-14v-20h14zm-12-11h4a1 1 0 0 0 1-1v-6a1 1 0 0 0 -1-1h-4a1 1 0 0 0 -1 1v6a1 1 0 0 0 1 1zm1-6h2v4h-2zm5-1a1 1 0 0 1 1-1h3a1 1 0 0 1 0 2h-3a1 1 0 0 1 -1-1zm0 3a1 1 0 0 1 1-1h3a1 1 0 0 1 0 2h-3a1 1 0 0 1 -1-1zm0 3a1 1 0 0 1 1-1h3a1 1 0 0 1 0 2h-3a1 1 0 0 1 -1-1zm-7 3a1 1 0 0 1 1-1h10a1 1 0 0 1 0 2h-10a1 1 0 0 1 -1-1zm0 3a1 1 0 0 1 1-1h10a1 1 0 0 1 0 2h-10a1 1 0 0 1 -1-1zm0 3a1 1 0 0 1 1-1h10a1 1 0 0 1 0 2h-10a1 1 0 0 1 -1-1zm6-31a24 24 0 1 0 24 24 24.0275 24.0275 0 0 0 -24-24zm0 46a22 22 0 1 1 22-22 22.0249 22.0249 0 0 1 -22 22z"/></g></svg>