<svg height="512" viewBox="0 0 64 64" width="512" xmlns="http://www.w3.org/2000/svg"><g id="unlock"><path d="m39 28h-2v-5a3.0033 3.0033 0 0 0 -3-3h-4a3.0033 3.0033 0 0 0 -3 3v2a1 1 0 0 0 2 0v-2a1.0007 1.0007 0 0 1 1-1h4a1.0007 1.0007 0 0 1 1 1v5h-10a3.0033 3.0033 0 0 0 -3 3v10a3.0033 3.0033 0 0 0 3 3h14a3.0033 3.0033 0 0 0 3-3v-10a3.0033 3.0033 0 0 0 -3-3zm1 13a1.0007 1.0007 0 0 1 -1 1h-14a1.0007 1.0007 0 0 1 -1-1v-10a1.0007 1.0007 0 0 1 1-1h14a1.0007 1.0007 0 0 1 1 1zm-8-9a2.9925 2.9925 0 0 0 -1 5.8157v1.1843a1 1 0 0 0 2 0v-1.1843a2.9926 2.9926 0 0 0 -1-5.8157zm0 4a1 1 0 1 1 1-1 1.0007 1.0007 0 0 1 -1 1zm0-28a24 24 0 1 0 24 24 24.0275 24.0275 0 0 0 -24-24zm0 46a22 22 0 1 1 22-22 22.0249 22.0249 0 0 1 -22 22z"/></g></svg>