<svg height="512" viewBox="0 0 64 64" width="512" xmlns="http://www.w3.org/2000/svg"><g id="up_arrow" data-name="up arrow"><path d="m56 32a24 24 0 1 0 -24 24 24.0275 24.0275 0 0 0 24-24zm-46 0a22 22 0 1 1 22 22 22.0249 22.0249 0 0 1 -22-22zm35 0a13 13 0 1 0 -13 13 13.0147 13.0147 0 0 0 13-13zm-24 0a11 11 0 1 1 11 11 11.0124 11.0124 0 0 1 -11-11zm11 8a1 1 0 0 1 -1-1v-12.1317l-4.4453 2.9637a1 1 0 0 1 -1.1094-1.6641l6-4a.9993.9993 0 0 1 1.1094 0l6 4a1 1 0 0 1 -1.1094 1.6641l-4.4453-2.9637v12.1317a1 1 0 0 1 -1 1z"/></g></svg>