<svg height="512" viewBox="0 0 64 64" width="512" xmlns="http://www.w3.org/2000/svg"><g id="video_record" data-name="video record"><path d="m33 31h-10a.9994.9994 0 0 0 -1 1v4a.9994.9994 0 0 0 1 1h10a.9994.9994 0 0 0 1-1v-4a.9994.9994 0 0 0 -1-1zm-1 4h-8v-2h8zm-10-7a.9994.9994 0 0 1 1-1h4a1 1 0 0 1 0 2h-4a.9994.9994 0 0 1 -1-1zm7 0a1 1 0 1 1 1 1 .9994.9994 0 0 1 -1-1zm5 0a1 1 0 1 1 -1-1 1 1 0 0 1 1 1zm-2-20a24 24 0 1 0 24 24 24.0275 24.0275 0 0 0 -24-24zm0 46a22 22 0 1 1 22-22 22.0249 22.0249 0 0 1 -22 22zm13.2344-31.4258a1.5577 1.5577 0 0 0 -1.6123.1084l-5.6221 3.5142v-.1968a3.0033 3.0033 0 0 0 -3-3h-14a3.0033 3.0033 0 0 0 -3 3v12a3.0033 3.0033 0 0 0 3 3h14a3.0033 3.0033 0 0 0 3-3v-.1959l5.6211 3.5133a1.5943 1.5943 0 0 0 1.6133.1084 1.5538 1.5538 0 0 0 .7656-1.4258v-16a1.56 1.56 0 0 0 -.7656-1.4258zm-9.2344 15.4258a1.0007 1.0007 0 0 1 -1 1h-14a1.0007 1.0007 0 0 1 -1-1v-12a1.0007 1.0007 0 0 1 1-1h14a1.0007 1.0007 0 0 1 1 1zm8 1.1953-6-3.7495v-6.8907l6-3.75z"/></g></svg>