<svg height="512" viewBox="0 0 64 64" width="512" xmlns="http://www.w3.org/2000/svg"><g id="volume"><path d="m35 27v10a1 1 0 0 1 -2 0v-10a1 1 0 0 1 2 0zm3-3a.9994.9994 0 0 0 -1 1v14a1 1 0 0 0 2 0v-14a.9994.9994 0 0 0 -1-1zm4-3a.9994.9994 0 0 0 -1 1v20a1 1 0 0 0 2 0v-20a.9994.9994 0 0 0 -1-1zm14 11a24 24 0 1 1 -24-24 24.0275 24.0275 0 0 1 24 24zm-2 0a22 22 0 1 0 -22 22 22.0249 22.0249 0 0 0 22-22zm-23-7.001v14a.9685.9685 0 0 1 -.4741.8506.9957.9957 0 0 1 -.9731.0439l-3.7891-1.8945h-3.7637a1 1 0 0 1 -1-1v-10a1 1 0 0 1 1-1h3.7637l3.7891-1.8945a1 1 0 0 1 1.4472.8945zm-6 3h-2v8h2zm4-1.3818-2 1v8.7637l2 1z"/></g></svg>