<svg height="512" viewBox="0 0 64 64" width="512" xmlns="http://www.w3.org/2000/svg"><g id="wallet"><path d="m42 23h-20a3.0033 3.0033 0 0 0 -3 3v12a3.0033 3.0033 0 0 0 3 3h20a3.0033 3.0033 0 0 0 3-3v-12a3.0033 3.0033 0 0 0 -3-3zm1 11h-8a2 2 0 0 1 0-4h8zm-1 5h-20a1.001 1.001 0 0 1 -1-1v-12a1.001 1.001 0 0 1 1-1h20a1.001 1.001 0 0 1 1 1v2h-8a4 4 0 0 0 0 8h8v2a1.001 1.001 0 0 1 -1 1zm-7-8a1 1 0 1 1 -1 1 1 1 0 0 1 1-1zm-7 1a1 1 0 0 1 -1 1h-4a1 1 0 0 1 0-2h4a1 1 0 0 1 1 1zm4-24a24 24 0 1 0 24 24 24.0275 24.0275 0 0 0 -24-24zm0 46a22 22 0 1 1 22-22 22.0249 22.0249 0 0 1 -22 22z"/></g></svg>