<svg height="512" viewBox="0 0 64 64" width="512" xmlns="http://www.w3.org/2000/svg"><g id="webcam-9" data-name="webcam"><path d="m32 20a10 10 0 0 0 -1 19.9493v2.0507h-2a1 1 0 0 0 0 2h6a1 1 0 0 0 0-2h-2v-2.0507a10 10 0 0 0 -1-19.9493zm0 18a8 8 0 1 1 8-8 8.0092 8.0092 0 0 1 -8 8zm-1-14a1 1 0 1 1 1 1 1 1 0 0 1 -1-1zm1-16a24 24 0 1 0 24 24 24.0275 24.0275 0 0 0 -24-24zm0 46a22 22 0 1 1 22-22 22.0249 22.0249 0 0 1 -22 22zm0-28a5 5 0 1 0 5 5 5.0059 5.0059 0 0 0 -5-5zm0 8a3 3 0 1 1 3-3 3.0033 3.0033 0 0 1 -3 3zm1-3a1 1 0 1 1 -1-1 1 1 0 0 1 1 1z"/></g></svg>