<svg height="512" viewBox="0 0 64 64" width="512" xmlns="http://www.w3.org/2000/svg"><g id="webcam-8" data-name="webcam"><path d="m32 23a7 7 0 1 0 7 7 7.0079 7.0079 0 0 0 -7-7zm0 12a5 5 0 1 1 5-5 5.0059 5.0059 0 0 1 -5 5zm7-11a1 1 0 1 1 -1-1 1 1 0 0 1 1 1zm-7-16a24 24 0 1 0 24 24 24.0275 24.0275 0 0 0 -24-24zm0 46a22 22 0 1 1 22-22 22.0249 22.0249 0 0 1 -22 22zm7-34h-14a3.0033 3.0033 0 0 0 -3 3v14a3.0033 3.0033 0 0 0 3 3h6v2h-2a1 1 0 0 0 0 2h6a1 1 0 0 0 0-2h-2v-2h6a3.0033 3.0033 0 0 0 3-3v-14a3.0033 3.0033 0 0 0 -3-3zm1 17a1.001 1.001 0 0 1 -1 1h-14a1.0013 1.0013 0 0 1 -1-1v-14a1.0013 1.0013 0 0 1 1-1h14a1.001 1.001 0 0 1 1 1zm-8-10a3 3 0 1 0 3 3 3.0033 3.0033 0 0 0 -3-3zm0 4a1 1 0 1 1 1-1 1.0013 1.0013 0 0 1 -1 1z"/></g></svg>