<svg height="512" viewBox="0 0 64 64" width="512" xmlns="http://www.w3.org/2000/svg"><g id="webcam-7" data-name="webcam"><path d="m29 31a1 1 0 0 1 -1-1 4.0043 4.0043 0 0 1 4-4 1 1 0 0 1 0 2 2.0023 2.0023 0 0 0 -2 2 1 1 0 0 1 -1 1zm9.0536 6.9412 1.8751 4.6877a1 1 0 0 1 -.9287 1.3711h-14a1 1 0 0 1 -.9287-1.3716l1.8751-4.6877a10 10 0 1 1 12.1073 0zm-6.0536.0588a8 8 0 1 0 -8-8 8.0092 8.0092 0 0 0 8 8zm4.324 1.0029a9.8741 9.8741 0 0 1 -8.6479 0l-1.1995 2.9971h11.0468zm-11.324-9.0029a7 7 0 1 1 7 7 7.0082 7.0082 0 0 1 -7-7zm2 0a5 5 0 1 0 5-5 5.0059 5.0059 0 0 0 -5 5zm29 2a24 24 0 1 1 -24-24 24.0275 24.0275 0 0 1 24 24zm-2 0a22 22 0 1 0 -22 22 22.0249 22.0249 0 0 0 22-22z"/></g></svg>