<svg height="512" viewBox="0 0 64 64" width="512" xmlns="http://www.w3.org/2000/svg"><g id="webcam-6" data-name="webcam"><path d="m32 28a4 4 0 1 0 4 4 4.0043 4.0043 0 0 0 -4-4zm0 6a2 2 0 1 1 2-2 2.0023 2.0023 0 0 1 -2 2zm1-2a1 1 0 1 1 -1-1 1 1 0 0 1 1 1zm-3-7a1 1 0 0 1 1-1h2a1 1 0 0 1 0 2h-2a1 1 0 0 1 -1-1zm2-17a24 24 0 1 0 24 24 24.0275 24.0275 0 0 0 -24-24zm0 46a22 22 0 1 1 22-22 22.0249 22.0249 0 0 1 -22 22zm4-34h-8a3.0033 3.0033 0 0 0 -3 3v14a3.0033 3.0033 0 0 0 3 3h1v2h-1a1 1 0 0 0 0 2h8a1 1 0 0 0 0-2h-1v-2h1a3.0033 3.0033 0 0 0 3-3v-14a3.0033 3.0033 0 0 0 -3-3zm-3 22h-2v-2h2zm4-5a1.001 1.001 0 0 1 -1 1h-8a1.001 1.001 0 0 1 -1-1v-14a1.001 1.001 0 0 1 1-1h8a1.001 1.001 0 0 1 1 1z"/></g></svg>