<svg height="512" viewBox="0 0 64 64" width="512" xmlns="http://www.w3.org/2000/svg"><g id="webcam-5" data-name="webcam"><path d="m32 22.0747a4 4 0 1 0 4 4 4.0046 4.0046 0 0 0 -4-4zm0 6a2 2 0 1 1 2-2 2.002 2.002 0 0 1 -2 2zm1-2a1 1 0 1 1 -1-1 1 1 0 0 1 1 1.0003zm1 6a1 1 0 0 1 -1 1h-2a1 1 0 0 1 0-2h2a1 1 0 0 1 1 1zm0 6.9253h-4a3.0033 3.0033 0 0 0 -3 3v2a1 1 0 0 0 1 1h8a1 1 0 0 0 1-1v-2a3.0033 3.0033 0 0 0 -3-3zm1 4h-6v-1a1.0013 1.0013 0 0 1 1-1h4a1.0013 1.0013 0 0 1 1 1zm-3-35a24 24 0 1 0 24 24 24.0275 24.0275 0 0 0 -24-24zm0 46a22 22 0 1 1 22-22 22.0249 22.0249 0 0 1 -22 22zm4-35h-8a3.0033 3.0033 0 0 0 -3 3v12a3.0033 3.0033 0 0 0 3 3h8a3.0033 3.0033 0 0 0 3-3v-12a3.0033 3.0033 0 0 0 -3-3zm1 15a1.0013 1.0013 0 0 1 -1 1h-8a1.0013 1.0013 0 0 1 -1-1v-12a1.0013 1.0013 0 0 1 1-1h8a1.0013 1.0013 0 0 1 1 1z"/></g></svg>