<svg height="512" viewBox="0 0 64 64" width="512" xmlns="http://www.w3.org/2000/svg"><g id="webcam-4" data-name="webcam"><path d="m32 8a24 24 0 1 0 24 24 24.0275 24.0275 0 0 0 -24-24zm0 46a22 22 0 1 1 22-22 22.0249 22.0249 0 0 1 -22 22zm3-15h-6a3.0033 3.0033 0 0 0 -3 3v2a1 1 0 0 0 1 1h10a1 1 0 0 0 1-1v-2a3.0033 3.0033 0 0 0 -3-3zm1 4h-8v-1a1.0013 1.0013 0 0 1 1-1h6a1.001 1.001 0 0 1 1 1zm2-24h-12a3.0033 3.0033 0 0 0 -3 3v12a3.0033 3.0033 0 0 0 3 3h12a3.0033 3.0033 0 0 0 3-3v-12a3.0033 3.0033 0 0 0 -3-3zm1 15a1.001 1.001 0 0 1 -1 1h-12a1.0013 1.0013 0 0 1 -1-1v-12a1.0013 1.0013 0 0 1 1-1h12a1.001 1.001 0 0 1 1 1zm-7-12a6 6 0 1 0 6 6 6.0066 6.0066 0 0 0 -6-6zm0 10a4 4 0 1 1 4-4 4.0046 4.0046 0 0 1 -4 4zm1-6a1 1 0 0 1 -1 1 1.0013 1.0013 0 0 0 -1 1 1 1 0 0 1 -2 0 3.0033 3.0033 0 0 1 3-3 1 1 0 0 1 1 1z"/></g></svg>