<svg height="512" viewBox="0 0 64 64" width="512" xmlns="http://www.w3.org/2000/svg"><g id="webcam-3" data-name="webcam"><path d="m32 19a9 9 0 1 0 9 9 9.01 9.01 0 0 0 -9-9zm0 16a7 7 0 1 1 7-7 7.0082 7.0082 0 0 1 -7 7zm0-10a4 4 0 1 0 4 4 4.0043 4.0043 0 0 0 -4-4zm0 6a2 2 0 1 1 2-2 2.0023 2.0023 0 0 1 -2 2zm-1-8a1 1 0 1 1 1 1 1 1 0 0 1 -1-1zm4 16h-6a3.0033 3.0033 0 0 0 -3 3v2a1 1 0 0 0 1 1h10a1 1 0 0 0 1-1v-2a3.0033 3.0033 0 0 0 -3-3zm1 4h-8v-1a1.001 1.001 0 0 1 1-1h6a1.001 1.001 0 0 1 1 1zm-4-35a24 24 0 1 0 24 24 24.0275 24.0275 0 0 0 -24-24zm0 46a22 22 0 1 1 22-22 22.0249 22.0249 0 0 1 -22 22z"/></g></svg>