<svg height="512" viewBox="0 0 64 64" width="512" xmlns="http://www.w3.org/2000/svg"><g id="webcam-2" data-name="webcam"><path d="m38.1064 35.5923a9 9 0 1 0 -12.1921.0189 8.5993 8.5993 0 0 0 -3.9143 7.3888 1 1 0 0 0 1 1h18a1 1 0 0 0 1-1 8.488 8.488 0 0 0 -3.8936-7.4077zm-13.1064-6.5923a7 7 0 1 1 7 7 7.0082 7.0082 0 0 1 -7-7zm-.9326 13c.39-2.8939 2.4056-4.905 3.8594-4.985a8.9153 8.9153 0 0 0 8.1518-.0026c1.4471.0666 3.4651 2.0835 3.855 4.9875zm7.9326-7a6 6 0 1 0 -6-6 6.0066 6.0066 0 0 0 6 6zm0-10a4 4 0 1 1 -4 4 4.0043 4.0043 0 0 1 4-4zm0-17a24 24 0 1 0 24 24 24.0275 24.0275 0 0 0 -24-24zm0 46a22 22 0 1 1 22-22 22.0249 22.0249 0 0 1 -22 22zm0-22a3 3 0 1 0 -3-3 3.0033 3.0033 0 0 0 3 3zm0-4a1 1 0 1 1 -1 1 1.001 1.001 0 0 1 1-1zm1 12a1 1 0 1 1 -1-1 1 1 0 0 1 1 1z"/></g></svg>