<svg height="512" viewBox="0 0 64 64" width="512" xmlns="http://www.w3.org/2000/svg"><g id="webcam"><path d="m40 19h-16a3.0033 3.0033 0 0 0 -3 3v16a3.0033 3.0033 0 0 0 3 3h1v2h-1a1 1 0 0 0 0 2h16a1 1 0 0 0 0-2h-1v-2h1a3.0033 3.0033 0 0 0 3-3v-16a3.0033 3.0033 0 0 0 -3-3zm-3 24h-10v-2h10zm4-5a1.0013 1.0013 0 0 1 -1 1h-16a1.0013 1.0013 0 0 1 -1-1v-16a1.0013 1.0013 0 0 1 1-1h16a1.0013 1.0013 0 0 1 1 1zm-9-16a8 8 0 1 0 8 8 8.0092 8.0092 0 0 0 -8-8zm0 14a6 6 0 1 1 6-6 6.0066 6.0066 0 0 1 -6 6zm0-11a5 5 0 1 0 5 5 5.0059 5.0059 0 0 0 -5-5zm0 8a3 3 0 1 1 3-3 3.0033 3.0033 0 0 1 -3 3zm8-10a1 1 0 1 1 -1-1 1 1 0 0 1 1 1zm-8-15a24 24 0 1 0 24 24 24.0275 24.0275 0 0 0 -24-24zm0 46a22 22 0 1 1 22-22 22.0249 22.0249 0 0 1 -22 22z"/></g></svg>