<svg height="512" viewBox="0 0 64 64" width="512" xmlns="http://www.w3.org/2000/svg"><g id="bookmark"><path d="m32 8a24 24 0 1 0 24 24 24.0275 24.0275 0 0 0 -24-24zm0 46a22 22 0 1 1 22-22 22.0249 22.0249 0 0 1 -22 22zm6-34h-12a3.0033 3.0033 0 0 0 -3 3v18a1.9138 1.9138 0 0 0 1.0308 1.9307 1.9657 1.9657 0 0 0 2.1191-.5449l5.0518-4.6309a1.2349 1.2349 0 0 1 1.5972 0l5.0511 4.6308a1.771 1.771 0 0 0 3.15-1.3857v-18a3.0033 3.0033 0 0 0 -3-3zm-3.85 16.28a3.2454 3.2454 0 0 0 -4.3 0l-4.85 4.4466v-14.7266h8a1 1 0 0 0 0-2h-8v-1a1.001 1.001 0 0 1 1-1h12a1.0007 1.0007 0 0 1 1 1v1h-2a1 1 0 0 0 0 2h2v14.7266z"/></g></svg>