<svg height="512" viewBox="0 0 64 64" width="512" xmlns="http://www.w3.org/2000/svg"><g id="love"><path d="m36.95 20.0752a7.9345 7.9345 0 0 0 -4.95 1.7139 8.0006 8.0006 0 0 0 -10.6069 11.9423l9.9 9.9a1 1 0 0 0 1.4141 0l9.8979-9.9a7.999 7.999 0 0 0 -5.6551-13.6562zm4.2417 12.2422-9.1917 9.1933-9.1934-9.1934a6 6 0 0 1 8.4863-8.4844 1.029 1.029 0 0 0 1.4146 0 5.999 5.999 0 1 1 8.4834 8.4844zm-9.1917-24.3174a24 24 0 1 0 24 24 24.0275 24.0275 0 0 0 -24-24zm0 46a22 22 0 1 1 22-22 22.0249 22.0249 0 0 1 -22 22z"/></g></svg>