<svg height="512" viewBox="0 0 64 64" width="512" xmlns="http://www.w3.org/2000/svg"><g id="home"><path d="m32 8a24 24 0 1 0 24 24 24.0275 24.0275 0 0 0 -24-24zm0 46a22 22 0 1 1 22-22 22.0249 22.0249 0 0 1 -22 22zm12.4473-27.8945-12-6a1.0011 1.0011 0 0 0 -.8945 0l-12 6a1 1 0 1 0 .8945 1.7891l1.5527-.7764v15.8818a1 1 0 0 0 1 1h6a1 1 0 0 0 1-1v-8.4736h4v8.4736a1 1 0 0 0 1 1h6a1 1 0 0 0 1-1v-15.8818l1.5527.7764a1 1 0 0 0 .8945-1.7891zm-4.4473 15.8945h-4v-8.4736a1 1 0 0 0 -1-1h-6a1 1 0 0 0 -1 1v8.4736h-4v-15.8818l8-4 8 4z"/></g></svg>