<svg height="512" viewBox="0 0 64 64" width="512" xmlns="http://www.w3.org/2000/svg"><g id="note"><path d="m35 21h-14a3.0033 3.0033 0 0 0 -3 3v16a3.0033 3.0033 0 0 0 3 3h14a3.0033 3.0033 0 0 0 3-3v-16a3.0033 3.0033 0 0 0 -3-3zm-14 2h14a1.001 1.001 0 0 1 1 1v.999h-16v-.999a1.001 1.001 0 0 1 1-1zm14 18h-14a1.001 1.001 0 0 1 -1-1v-13.001h16v13.001a1.001 1.001 0 0 1 -1 1zm8.8062-19.5918a1.0361 1.0361 0 0 0 -1.6123 0l-2 2.7266a1.0005 1.0005 0 0 0 -.1939.5918v17.2734a1 1 0 0 0 1 1h4a1 1 0 0 0 1-1v-17.2734a1.0005 1.0005 0 0 0 -.1938-.5918zm-.8062 2.2818 1 1.3633v.9467h-2v-.9463zm-1 17.31v-13h2v13zm-8-11a1 1 0 0 1 -1 1h-10a1 1 0 0 1 0-2h10a1 1 0 0 1 1 1zm0 4a1 1 0 0 1 -1 1h-10a1 1 0 0 1 0-2h10a1 1 0 0 1 1 1zm0 4a1 1 0 0 1 -1 1h-10a1 1 0 0 1 0-2h10a1 1 0 0 1 1 1zm-2-30a24 24 0 1 0 24 24 24.0275 24.0275 0 0 0 -24-24zm0 46a22 22 0 1 1 22-22 22.0249 22.0249 0 0 1 -22 22z"/></g></svg>