<?xml version="1.0" encoding="UTF-8"?>
<svg xmlns="http://www.w3.org/2000/svg" viewBox="0 0 64 64" width="512" height="512"><g id="shield"><path d="M41.2158,21.8232l-8.0381-1.6074a6.9064,6.9064,0,0,0-2.3545,0l-8.04,1.6074A2.2849,2.2849,0,0,0,21,24V34a3.335,3.335,0,0,0,1.1563,2.4063l8.4375,6.75a2.3283,2.3283,0,0,0,2.8125,0l8.4375-6.75A3.335,3.335,0,0,0,43,34V24A2.2847,2.2847,0,0,0,41.2158,21.8232ZM41,34a1.4032,1.4032,0,0,1-.4062.8438l-8.4375,6.75a.3284.3284,0,0,1-.3125,0l-8.4375-6.75A1.4032,1.4032,0,0,1,23,34V24a.2945.2945,0,0,1,.1768-.2158l8.04-1.6074a5.0159,5.0159,0,0,1,1.5664,0h.001l8.0381,1.6074A.2937.2937,0,0,1,41,24Zm-3.8213-9.1514-4.0273-.6719h-.002a8.1074,8.1074,0,0,0-2.3008,0l-4.0254.6719A2.2276,2.2276,0,0,0,25,26.999v5a3.4073,3.4073,0,0,0,1.1279,2.4092l4.4629,3.7188a2.26,2.26,0,0,0,2.8184,0l4.4629-3.7187A3.4073,3.4073,0,0,0,39,31.999v-5A2.2277,2.2277,0,0,0,37.1787,24.8486ZM37,31.999a1.4764,1.4764,0,0,1-.4092.8721L32.1279,36.59a.27.27,0,0,1-.2559,0l-4.4629-3.7187A1.4764,1.4764,0,0,1,27,31.999v-5a.2465.2465,0,0,1,.1514-.1777l4.0254-.6719a6.3284,6.3284,0,0,1,1.6455,0l4.0283.6719A.2481.2481,0,0,1,37,26.999ZM32,8A24,24,0,1,0,56,32,24.0275,24.0275,0,0,0,32,8Zm0,46A22,22,0,1,1,54,32,22.0249,22.0249,0,0,1,32,54Z"/></g></svg>
