<svg height="512" viewBox="0 0 64 64" width="512" xmlns="http://www.w3.org/2000/svg"><g id="user"><path d="m32 23a4 4 0 1 0 4 4 4.0046 4.0046 0 0 0 -4-4zm0 6a2 2 0 1 1 2-2 2.002 2.002 0 0 1 -2 2zm0-10a13 13 0 1 0 13 13 13.0144 13.0144 0 0 0 -13-13zm6 22.2076a10.9385 10.9385 0 0 1 -12 0v-3.3326a2.9427 2.9427 0 0 1 3-2.875h6a2.9427 2.9427 0 0 1 3 2.875zm2-1.6811v-1.6515a4.9445 4.9445 0 0 0 -5-4.875h-6a4.9445 4.9445 0 0 0 -5 4.875v1.6515a11 11 0 1 1 16 0zm-8-31.5265a24 24 0 1 0 24 24 24.0275 24.0275 0 0 0 -24-24zm0 46a22 22 0 1 1 22-22 22.0249 22.0249 0 0 1 -22 22z"/></g></svg>