<svg height="512pt" viewBox="0 0 512 512" width="512pt" xmlns="http://www.w3.org/2000/svg"><path d="m336.078125 102.386719c12.375-2.472657 23.921875 6.992187 23.921875 19.613281v194.578125c0 30.414063-31.570312 55.421875-61.984375 55.421875h-1.082031c-19.148438 0-37.574219-13.023438-40.503906-31.933594-.535157-3.488281-.566407-6.964844-.105469-10.4375 1.929687-14.914062 13.09375-27.035156 27.148437-31.21875l3.109375-.75 25.34375-6.113281c4.75-1.214844 8.078125-5.492187 8.078125-10.398437v-94.753907l-100 20v139.636719c-.003906 30.414062-31.574218 54.96875-61.988281 54.96875h-1.082031c-19.148438 0-37.574219-12.566406-40.503906-31.480469-.535157-3.488281-.566407-6.960937-.105469-10.4375 1.929687-14.910156 13.09375-27.035156 27.148437-31.21875l3.109375-.75 25.339844-6.113281c4.753906-1.210938 8.078125-5.492188 8.078125-10.394531v-160.605469c0-9.535156 6.730469-17.742188 16.078125-19.613281zm52.382813 372.71875c9.449218-5.722657 12.46875-18.019531 6.746093-27.464844-5.722656-9.449219-18.023437-12.46875-27.46875-6.746094-33.59375 20.347657-72.234375 31.105469-111.738281 31.105469-119.101562 0-216-96.898438-216-216s96.898438-216 216-216 216 96.898438 216 216c0 42.589844-12.664062 84.042969-36.625 119.886719-6.140625 9.179687-3.671875 21.601562 5.511719 27.742187 9.179687 6.136719 21.601562 3.667969 27.742187-5.511718 28.371094-42.441407 43.371094-91.585938 43.371094-142.117188 0-68.378906-26.628906-132.667969-74.980469-181.019531-48.351562-48.351563-112.640625-74.980469-181.019531-74.980469s-132.667969 26.628906-181.019531 74.980469c-48.351563 48.351562-74.980469 112.640625-74.980469 181.019531s26.628906 132.667969 74.980469 181.019531c48.351562 48.351563 112.640625 74.980469 181.019531 74.980469 46.8125 0 92.617188-12.757812 132.460938-36.894531zm0 0"/></svg>