<svg height="512pt" viewBox="-27 0 512 512" width="512pt" xmlns="http://www.w3.org/2000/svg"><path d="m417.03125 251.75v-148.523438c0-34.152343-27.785156-61.9375-61.933594-61.9375h-251.871094c-34.152343 0-61.9375 27.785157-61.9375 61.9375v251.871094c0 34.148438 27.785157 61.933594 61.9375 61.933594h89.804688c6.871094 0 13.292969 3.417969 17.128906 9.117188l18.753906 27.863281 18.066407-27.632813c3.8125-5.832031 10.308593-9.347656 17.277343-9.347656h90.839844c34.148438 0 61.933594-27.785156 61.933594-61.933594 0-11.402344 9.242188-20.644531 20.644531-20.644531 11.402344 0 20.648438 9.242187 20.648438 20.644531 0 56.917969-46.308594 103.226563-103.226563 103.226563h-79.671875l-28.984375 44.328125c-3.789062 5.792968-10.222656 9.300781-17.140625 9.347656-.046875 0-.09375 0-.140625 0-6.867187 0-13.289062-3.414062-17.125-9.117188l-29.992187-44.558593h-78.816407c-56.917968 0-103.226562-46.308594-103.226562-103.226563v-251.871094c0-56.917968 46.308594-103.226562 103.226562-103.226562h251.871094c56.917969 0 103.226563 46.308594 103.226563 103.226562v148.523438c0 11.402344-9.246094 20.644531-20.648438 20.644531-11.402343 0-20.644531-9.242187-20.644531-20.644531zm-306.628906 23.234375c-6.023438-9.632813-18.707032-12.585937-28.375-6.597656-9.691406 6.007812-12.679688 18.730469-6.671875 28.421875 2.046875 3.308594 51.371093 80.996094 153.804687 80.996094s151.757813-77.6875 153.808594-80.996094c6.003906-9.691406 3.015625-22.414063-6.675781-28.421875-9.691407-6.007813-22.417969-3.019531-28.421875 6.675781-.382813.613281-39.007813 61.453125-118.710938 61.453125-32.90625 0-62.742187-10.171875-88.671875-30.226563-19.78125-15.304687-29.875-30.980468-30.085937-31.304687zm56.824218-82.984375v-41.289062h-7.226562c-11.402344 0-20.644531-9.242188-20.644531-20.644532s9.242187-20.648437 20.644531-20.648437h7.226562v-7.222657c0-11.402343 9.242188-20.648437 20.644532-20.648437s20.644531 9.246094 20.644531 20.648437v7.222657h41.289063v-7.222657c0-11.402343 9.246093-20.648437 20.648437-20.648437s20.644531 9.246094 20.644531 20.648437v7.222657h7.226563c11.402343 0 20.644531 9.246093 20.644531 20.648437s-9.242188 20.644532-20.644531 20.644532h-7.226563v41.289062h7.226563c11.402343 0 20.644531 9.242188 20.644531 20.644531 0 11.402344-9.242188 20.644531-20.644531 20.644531h-7.226563v7.226563c0 11.402344-9.242187 20.644531-20.644531 20.644531s-20.648437-9.242187-20.648437-20.644531v-7.226563h-41.289063v7.226563c0 11.402344-9.242187 20.644531-20.644531 20.644531s-20.644532-9.242187-20.644532-20.644531v-7.226563h-7.226562c-11.402344 0-20.644531-9.242187-20.644531-20.644531 0-11.402343 9.242187-20.644531 20.644531-20.644531zm41.289063 0h41.289063v-41.289062h-41.289063zm0 0"/></svg>