<svg height="512pt" viewBox="0 0 512 512" width="512pt" xmlns="http://www.w3.org/2000/svg"><path d="m258 418c-7.433594 0-17.78125-2.636719-38.160156-22.195312-12.523438-12.015626-26.128906-27.949219-38.316406-44.863282-18.867188-26.183594-50.523438-77.367187-50.523438-125.941406 0-70.027344 56.972656-127 127-127s127 56.972656 127 127c0 49.675781-31.679688 100.734375-50.566406 126.75-12.164063 16.757812-25.796875 32.539062-38.382813 44.4375-20.328125 19.222656-30.640625 21.8125-38.050781 21.8125zm0-280c-47.972656 0-87 39.027344-87 87 0 25.660156 14.179688 60.9375 38.90625 96.785156 20.035156 29.046875 39.222656 47.605469 48.167969 54.304688 8.972656-6.601563 28.144531-24.886719 48.023437-53.519532 25.085938-36.132812 38.902344-70.785156 38.902344-97.570312 0-47.972656-39.027344-87-87-87zm-.863281 39c-.652344 0-1.308594.015625-1.96875.042969-2.769531.121093-5.53125.410156-8.4375 1.097656 5.566406 3.550781 9.269531 9.765625 9.269531 16.859375 0 11.046875-8.953125 20-20 20-9.589844 0-17.59375-6.75-19.539062-15.757812-1.550782 2.417968-2.816407 4.855468-3.796876 7.433593-5.636718 14.878907-5.0625 29.28125 3.765626 42.738281 8.925781 13.609376 24.382812 21.585938 40.308593 21.585938 3.460938 0 6.941407-.375 10.386719-1.152344 21.703125-4.898437 39.78125-26.960937 35.144531-53.296875-3.863281-21.925781-22.179687-39.550781-45.132812-39.550781zm131.324219 298.105469c9.449218-5.722657 12.46875-18.019531 6.746093-27.464844-5.726562-9.449219-18.023437-12.46875-27.46875-6.746094-33.59375 20.347657-72.234375 31.105469-111.738281 31.105469-119.101562 0-216-96.898438-216-216s96.898438-216 216-216 216 96.898438 216 216c0 42.589844-12.664062 84.042969-36.625 119.886719-6.140625 9.179687-3.671875 21.601562 5.511719 27.742187 9.183593 6.136719 21.601562 3.671875 27.742187-5.511718 28.371094-42.441407 43.371094-91.585938 43.371094-142.117188 0-68.378906-26.628906-132.667969-74.980469-181.019531-48.351562-48.351563-112.640625-74.980469-181.019531-74.980469s-132.667969 26.628906-181.019531 74.980469c-48.351563 48.351562-74.980469 112.640625-74.980469 181.019531s26.628906 132.667969 74.980469 181.019531c48.351562 48.351563 112.640625 74.980469 181.019531 74.980469 46.8125 0 92.617188-12.757812 132.460938-36.894531zm0 0"/></svg>